<?xml version="1.0" encoding="utf-8"?>
<!-- Generator: Adobe Illustrator 25.0.0, SVG Export Plug-In . SVG Version: 6.00 Build 0)  -->
<svg version="1.1" id="Layer_1" xmlns="http://www.w3.org/2000/svg" xmlns:xlink="http://www.w3.org/1999/xlink" x="0px" y="0px"
	 viewBox="0 0 512 512" style="enable-background:new 0 0 512 512;" xml:space="preserve">
<style type="text/css">
	.st0{fill:#273B7A;}
	.st1{fill:#121149;}
	.st2{fill:#F7E059;}
	.st3{fill:#EAA22F;}
	.st4{fill:#EAA22F;stroke:#1D1D1B;stroke-miterlimit:10;}
	.st5{fill:#F7E059;stroke:#1D1D1B;stroke-miterlimit:10;}
	.st6{fill:#FFEDB5;}
	.st7{fill:#FEE187;}
	.st8{fill:#FFFFFF;}
	.st9{fill:#D0D1D3;}
</style>
<circle class="st0" cx="256" cy="256" r="256"/>
<path class="st1" d="M381.4,125.5L344,162.8l-83-82.2l0.5,13.4l-4.4-4.4l-0.9,50.8l53.2,53.2l-43.8,56.6l-95.5-94.9l-7.6,11.9
	l85.6,85.6l6.1,5l-14.4-14.4l-63.2,7.8l-17.9-16.8l-1,8.9l-55.9,1.9l155.6,155.8l-22.8,16l86.5,86.5C431,474.8,512,374.9,512,256.1
	L381.4,125.5z"/>
<path class="st2" d="M341.3,240.7c0-48.3-40.1-87.2-88.8-85.3c-43.6,1.7-79.4,36.8-81.8,80.4c-1.4,25.8,8.6,49.3,25.5,65.8
	c19.6,19.2,31.2,25.3,31.2,52.8v8.7h56.9v-8.1c0-27.2,10.5-33.8,30.3-52.5C331.1,287.1,341.3,265.1,341.3,240.7z"/>
<path class="st3" d="M256,155.4v207.7h28.2v-8.1c0-27.2,10.5-33.8,30.3-52.5c16.4-15.5,26.6-37.5,26.6-61.9
	C341,193.7,303,155.5,256,155.4z"/>
<g id="surface1">
	<path class="st4" d="M324.8,230.5c0-6.3-3.2-12.2-8.4-15.8c0.6-1.5,0.9-3.2,0.9-4.8c0-6.8-5-12.5-11.6-13.6
		c-0.3-6.9-5.8-12.5-12.8-13.1c-2.1-4.3-6.6-7.2-11.6-7.2c-1.3,0-2.6,0.2-3.8,0.6c-1.9-2.3-4.8-3.8-7.9-3.8
		c-5.6,0-10.1,4.4-10.1,9.9V218c0,4.3,2,8.4,5.2,11.1c-3.3,2.9-5.2,7.1-5.2,11.5v21.7c0,2.6,0.7,5.2,1.9,7.5
		c-1.3,2.2-1.9,4.7-1.9,7.2V294c0,7.6,6.3,13.8,14.1,13.8c5.1,0,9.7-2.6,12.2-6.8c1.8,0.8,3.7,1.2,5.7,1.2c7.7,0,14-6.1,14.1-13.6
		c7.8-2.3,13.3-9.3,13.3-17.5c0-2.9-0.7-5.6-2-8.1c4.8-3,7.7-8.2,7.7-13.9c0-3.2-0.9-6.3-2.7-8.9
		C323.9,237.3,324.8,233.9,324.8,230.5z"/>
	<path class="st4" d="M314.7,258.6c-3.5-5.9-10.4-7.1-14-7.2c-0.7-2.9-2.4-5.6-4.8-7.5c-1.1-0.9-2.7-0.7-3.5,0.3
		c-0.9,1-0.7,2.6,0.3,3.5c2.1,1.7,3.4,4.3,3.4,7c0,5-4.1,9-9.2,9c-5.1,0-9.2-4.1-9.2-9c0-2.2,0.8-4.3,2.2-5.9c0,0,0-0.1,0.1-0.1
		c0.7-0.1,1.4-0.2,2.1-0.5c5.3-1.9,8-7.7,6-12.9c-0.5-1.3-1.9-1.9-3.2-1.4c-1.3,0.5-2,1.9-1.5,3.2c1,2.6-0.4,5.6-3,6.5
		c-2.7,1-5.7-0.4-6.7-3c-0.5-1.3-1.9-1.9-3.2-1.4c-1.3,0.5-2,1.9-1.5,3.2c1,2.7,3.1,4.6,5.5,5.7c-1.2,2-1.8,4.3-1.8,6.7
		c0,7.7,6.4,13.9,14.2,13.9c7.3,0,13.2-5.3,14.1-12.2c3.1,0.3,8.5,1.4,10.2,6.5c0.1,0.2,0.2,0.4,0.3,0.6c0,0,0,0,0,0.1
		c1.6,2.3,2.5,4.9,2.5,7.7c0,5.6-3.5,10.4-8.6,12.4c-0.8-4.8-4-7.9-4.2-8.1c-1-0.9-2.6-0.9-3.6,0.1c-0.9,1-0.9,2.5,0.1,3.5
		c0,0,3.3,3.2,2.8,7.5c0,0.1,0,0.2,0,0.3c0,0.1,0,0.2,0,0.3c0.1,0.4,0.1,0.9,0.1,1.3c0,4.9-4.1,8.9-9.1,8.9c-1.2,0-2.4-0.3-3.5-0.7
		c1.1-2.9,1.3-7.3-2.1-12c1.7-2.7,1.6-6.2-0.4-8.9c-0.8-1.1-2.4-1.3-3.5-0.6c-1.1,0.8-1.4,2.3-0.6,3.4c1.1,1.4,0.7,3.4-0.7,4.5
		c-1.5,1-3.5,0.7-4.6-0.7c-0.8-1.1-2.4-1.3-3.5-0.6c-1.1,0.8-1.4,2.3-0.6,3.4c1.6,2.2,4.2,3.4,6.7,3.4c1.1,0,2.2-0.2,3.3-0.7
		c3.1,4.6,0.9,7.8,0.6,8.2c-0.1,0.2-0.2,0.4-0.3,0.6c0,0.1-0.1,0.1-0.1,0.2c-1.2,3.7-4.7,6.1-8.7,6.1c-5,0-9.1-4-9.1-8.9v-16.9
		c0-1.2,0.2-2.4,0.7-3.5c2.2,1.4,5.8,3.1,10.8,3.1c0.2,0,0.5,0,0.7,0c1.4,0,2.5-1.2,2.4-2.5c0-1.3-1.2-2.4-2.5-2.4c0,0-0.1,0-0.1,0
		c-0.2,0-0.4,0-0.6,0c-5.7,0-9-2.9-9.6-3.5c-1.2-1.8-1.9-3.8-1.9-6v-21.7c0-4,2.2-7.6,5.8-9.5c0.1,0,0.1-0.1,0.2-0.1
		c0,0,0.1,0,0.1,0c0.5-0.4,5.5-3.5,10.7,0.8c0.5,0.4,1,0.6,1.6,0.6c0.7,0,1.4-0.3,1.9-0.9c0.9-1,0.8-2.6-0.3-3.5
		c-5.8-4.8-12-3.7-15.5-1.9c-2.8-1.8-4.6-4.9-4.6-8.2v-35.3c0-2.7,2.3-5,5.1-5c1.8,0,3.3,0.9,4.3,2.4c-0.4,2-1.5,4.8-3,5.7
		c-1.2,0.7-1.6,2.2-0.9,3.4c0.5,0.8,1.3,1.2,2.2,1.2c0.4,0,0.9-0.1,1.3-0.3c3.3-1.9,4.8-6.3,5.3-8.6c0.8-0.3,1.7-0.5,2.6-0.5
		c3.3,0,6.3,2.1,7.3,5.2c0,1.4-0.1,6.8-3.1,10.2c-1.2,1.3-2.7,2.1-4.5,2.6c-0.6-2.6-2.4-4.8-5.1-5.7c-1.3-0.4-2.7,0.2-3.2,1.5
		c-0.5,1.3,0.2,2.7,1.5,3.1c1.5,0.5,2.3,2.1,1.8,3.6c-0.5,1.5-2.2,2.3-3.7,1.8c-1.3-0.4-2.7,0.2-3.2,1.5c-0.5,1.3,0.2,2.7,1.5,3.1
		c0.9,0.3,1.7,0.4,2.6,0.4c3,0,5.7-1.6,7.1-4.3c3.6-0.4,6.7-1.9,8.9-4.4c3.2-3.5,4.1-8.2,4.3-11.2c4.1,0.9,7.1,4.4,7.1,8.7
		c0,0.4,0,0.8-0.1,1.2c0,0.2,0,0.4,0.1,0.5c-0.2,1.5-0.9,4.2-2,4.9c-1.2,0.7-1.5,2.3-0.8,3.4c0.5,0.7,1.3,1.1,2.1,1.1
		c0.5,0,0.9-0.1,1.4-0.4c2.4-1.5,3.4-4.4,3.9-6.5c4,0.9,7,4.4,7,8.7c0,0.7-0.1,1.5-0.3,2.2c-4.3-1.9-11.3-2.9-18.6,1.8
		c-2.1-1.4-4.6-2-7.2-1.9c-3.1,0.2-6,1.6-8.1,3.9c-0.9,1-0.8,2.6,0.2,3.5c1,0.9,2.6,0.8,3.5-0.2c1.2-1.3,2.8-2.1,4.6-2.2
		c1.8-0.1,3.5,0.5,4.9,1.6c2.8,2.4,3.1,6.6,0.6,9.3c-0.9,1-0.8,2.6,0.2,3.5c0.5,0.4,1.1,0.6,1.7,0.6c0.7,0,1.4-0.3,1.9-0.8
		c3.5-3.9,3.7-9.4,1.1-13.6c8-4.6,14.4-0.1,14.7,0.1c0.1,0,0.1,0.1,0.2,0.1c0.1,0,0.1,0.1,0.1,0.1c4.8,2.5,7.8,7.4,7.8,12.7
		c0,1.9-0.4,3.8-1.2,5.5c-1.9-1.5-3.9-2.1-5.4-2.3c-0.9-3.9-3.8-7.1-7.8-8.4c-1.3-0.4-2.7,0.3-3.2,1.6c-0.4,1.3,0.3,2.7,1.6,3.1
		c2.7,0.9,4.6,3.3,4.7,6.2c0,2.4-1.2,4.6-3.3,5.8c-1.2,0.7-1.6,2.2-0.9,3.4c0.5,0.8,1.3,1.2,2.2,1.2c0.4,0,0.9-0.1,1.3-0.3
		c2.9-1.7,4.8-4.4,5.5-7.5c1.1,0.3,2.5,1,3.7,2.9c0,0.1,0.1,0.1,0.1,0.2c0,0,0,0.1,0.1,0.1c1.7,2.1,2.6,4.6,2.6,7.3
		C319.8,253,317.9,256.5,314.7,258.6z"/>
	<path class="st5" d="M190.3,240.2c-1.7,2.6-2.7,5.8-2.7,8.9c0,5.7,3,10.9,7.7,13.9c-1.3,2.5-2,5.3-2,8.1c0,8.2,5.5,15.2,13.3,17.5
		c0.1,7.5,6.4,13.6,14.1,13.6c2,0,3.9-0.4,5.7-1.2c2.5,4.2,7.1,6.8,12.2,6.8c7.8,0,14.1-6.2,14.1-13.8v-16.9c0-2.6-0.7-5-1.9-7.2
		c1.3-2.3,1.9-4.8,1.9-7.5v-21.7c0-4.5-1.9-8.6-5.2-11.6c3.2-2.8,5.2-6.8,5.2-11.1v-35.3c0-5.4-4.5-9.9-10.1-9.9
		c-3.1,0-6,1.4-7.9,3.8c-1.2-0.4-2.5-0.6-3.8-0.6c-5,0-9.5,2.9-11.6,7.2c-6.9,0.6-12.5,6.2-12.8,13.1c-6.6,1.2-11.6,6.8-11.6,13.6
		c0,1.6,0.3,3.3,0.9,4.8c-5.2,3.6-8.4,9.5-8.4,15.8C187.7,233.9,188.6,237.3,190.3,240.2z"/>
	<path class="st5" d="M192.7,249.1c0-2.7,0.9-5.2,2.6-7.3c0,0,0-0.1,0.1-0.1c0-0.1,0.1-0.1,0.1-0.2c1.2-1.8,2.6-2.6,3.7-2.9
		c0.7,3.1,2.6,5.8,5.5,7.5c0.4,0.2,0.8,0.3,1.3,0.3c0.9,0,1.7-0.4,2.2-1.2c0.7-1.2,0.3-2.7-0.9-3.4c-2.1-1.2-3.4-3.4-3.3-5.8
		c0.1-2.8,1.9-5.3,4.7-6.2c1.3-0.4,2-1.8,1.6-3.1c-0.4-1.3-1.8-2-3.1-1.6c-4,1.3-6.9,4.5-7.8,8.4c-1.5,0.2-3.5,0.8-5.4,2.3
		c-0.7-1.8-1.2-3.6-1.2-5.5c0-5.3,3-10.2,7.8-12.7c0.1,0,0.1-0.1,0.1-0.1c0.1,0,0.1,0,0.2-0.1c0.3-0.2,6.7-4.7,14.7-0.1
		c-2.6,4.2-2.4,9.7,1.1,13.6c0.5,0.6,1.2,0.8,1.9,0.8c0.6,0,1.2-0.2,1.7-0.6c1-0.9,1.1-2.4,0.2-3.5c-2.4-2.7-2.2-6.9,0.6-9.3
		c1.4-1.2,3.1-1.7,4.9-1.6c1.8,0.1,3.4,0.9,4.6,2.2c0.9,1,2.5,1.1,3.5,0.2c1-0.9,1.2-2.4,0.2-3.5c-2.1-2.3-4.9-3.7-8.1-3.9
		c-2.6-0.2-5,0.5-7.2,1.9c-7.3-4.7-14.3-3.7-18.6-1.8c-0.2-0.7-0.3-1.5-0.3-2.2c0-4.2,3-7.7,7-8.7c0.5,2.1,1.6,5,3.9,6.5
		c0.4,0.3,0.9,0.4,1.4,0.4c0.8,0,1.6-0.4,2.1-1.1c0.8-1.1,0.4-2.7-0.7-3.4c-1.2-0.7-1.9-3.4-2-4.9c0-0.2,0.1-0.3,0.1-0.5
		c-0.1-0.4-0.1-0.8-0.1-1.2c0-4.2,3-7.8,7.1-8.7c0.2,3,1.1,7.7,4.3,11.2c2.3,2.5,5.3,3.9,8.9,4.4c1.3,2.7,4.1,4.3,7.1,4.3
		c0.9,0,1.7-0.1,2.6-0.4c1.3-0.4,2-1.8,1.5-3.1c-0.5-1.3-1.9-2-3.2-1.5c-1.5,0.5-3.2-0.3-3.7-1.8c-0.5-1.5,0.3-3.1,1.8-3.6
		c1.3-0.4,2-1.8,1.5-3.1c-0.5-1.3-1.9-2-3.2-1.5c-2.7,0.9-4.5,3.2-5.1,5.7c-1.8-0.4-3.3-1.3-4.5-2.6c-3.1-3.4-3.2-8.8-3.1-10.2
		c1-3.1,4-5.2,7.3-5.2c0.9,0,1.7,0.2,2.6,0.5c0.5,2.3,2,6.6,5.3,8.6c0.4,0.2,0.8,0.3,1.3,0.3c0.9,0,1.7-0.4,2.2-1.2
		c0.7-1.2,0.3-2.7-0.9-3.4c-1.5-0.9-2.6-3.7-3-5.7c0.9-1.4,2.5-2.4,4.2-2.4c2.8,0,5.1,2.2,5.1,5V218c0,3.3-1.8,6.4-4.6,8.2
		c-3.5-1.7-9.7-2.9-15.5,1.9c-1.1,0.9-1.2,2.4-0.3,3.5c0.5,0.6,1.2,0.9,1.9,0.9c0.6,0,1.2-0.2,1.6-0.6c5.2-4.4,10.2-1.2,10.7-0.8
		c0,0,0.1,0,0.1,0c0.1,0,0.1,0.1,0.2,0.1c3.6,1.9,5.8,5.5,5.8,9.5v21.7c0,2.1-0.7,4.2-1.9,6c-0.6,0.6-3.8,3.5-9.6,3.5
		c-0.2,0-0.4,0-0.6,0c0,0-0.1,0-0.1,0c-1.3,0-2.5,1.1-2.5,2.4c0,1.4,1,2.5,2.4,2.5c0.2,0,0.5,0,0.7,0c4.9,0,8.5-1.6,10.8-3.1
		c0.4,1.1,0.7,2.3,0.7,3.5V294c0,4.9-4.1,8.9-9.1,8.9c-4,0-7.4-2.5-8.7-6.1c0-0.1-0.1-0.1-0.1-0.2c-0.1-0.2-0.2-0.4-0.3-0.6
		c-0.3-0.4-2.5-3.6,0.6-8.2c1,0.5,2.2,0.7,3.3,0.7c2.6,0,5.1-1.2,6.7-3.4c0.8-1.1,0.6-2.6-0.6-3.4c-1.1-0.8-2.7-0.6-3.5,0.6
		c-1.1,1.4-3.1,1.8-4.6,0.7c-1.5-1-1.8-3-0.7-4.5c0.8-1.1,0.6-2.6-0.6-3.4c-1.1-0.8-2.7-0.5-3.5,0.6c-2,2.7-2,6.2-0.4,8.9
		c-3.4,4.7-3.2,9.1-2.1,12c-1.1,0.5-2.3,0.7-3.5,0.7c-5,0-9.1-4-9.1-8.9c0-0.4,0-0.9,0.1-1.3c0-0.1,0-0.2,0-0.3c0-0.1,0-0.2,0-0.3
		c-0.5-4.3,2.8-7.4,2.8-7.5c1-0.9,1-2.5,0.1-3.5c-1-1-2.5-1-3.5-0.1c-0.2,0.2-3.4,3.3-4.2,8.1c-5.1-2-8.6-6.8-8.6-12.4
		c0-2.8,0.9-5.4,2.5-7.7c0,0,0,0,0-0.1c0.1-0.2,0.2-0.4,0.3-0.6c1.6-5.1,7.1-6.2,10.1-6.5c0.9,6.9,6.9,12.2,14.1,12.2
		c7.8,0,14.2-6.3,14.2-13.9c0-2.4-0.6-4.7-1.8-6.7c2.5-1,4.5-3,5.5-5.7c0.5-1.3-0.2-2.7-1.5-3.2c-1.3-0.5-2.7,0.2-3.2,1.4
		c-1,2.6-4,4-6.7,3c-2.7-1-4-3.9-3.1-6.5c0.5-1.3-0.2-2.7-1.5-3.2c-1.3-0.5-2.7,0.2-3.2,1.4c-2,5.2,0.7,10.9,6,12.9
		c0.7,0.2,1.4,0.4,2.1,0.5c0,0,0,0.1,0.1,0.1c1.4,1.6,2.2,3.7,2.2,5.9c0,5-4.1,9-9.2,9s-9.2-4.1-9.2-9c0-2.7,1.2-5.3,3.4-7
		c1.1-0.9,1.2-2.4,0.3-3.5c-0.9-1-2.5-1.2-3.5-0.3c-2.4,2-4.1,4.6-4.8,7.5c-3.6,0.2-10.5,1.4-14,7.2
		C194.6,256.5,192.7,253,192.7,249.1z"/>
</g>
<path id="SVGCleanerId_0" class="st6" d="M256,140.5c-3.8,0-6.9-3.1-6.9-6.9V85.3c0-3.8,3.1-6.9,6.9-6.9c3.8,0,6.9,3.1,6.9,6.9v48.3
	C262.9,137.4,259.8,140.5,256,140.5z"/>
<g>
	<path class="st7" d="M342.4,171.4c-1.8,0-3.5-0.7-4.9-2c-2.7-2.7-2.7-7.1,0-9.8l34.1-34.1c2.7-2.7,7.1-2.7,9.8,0
		c2.7,2.7,2.7,7.1,0,9.8l-34.1,34.1C345.9,170.7,344.1,171.4,342.4,171.4z"/>
	<path class="st7" d="M405.3,247.2L405.3,247.2l-48.3,0c-3.8,0-6.9-3.1-6.9-6.9c0-3.8,3.1-6.9,6.9-6.9h0l48.3,0
		c3.8,0,6.9,3.1,6.9,6.9S409.1,247.2,405.3,247.2z"/>
</g>
<g>
	<path id="SVGCleanerId_0_1_" class="st6" d="M256,140.5c-3.8,0-6.9-3.1-6.9-6.9V85.3c0-3.8,3.1-6.9,6.9-6.9c3.8,0,6.9,3.1,6.9,6.9
		v48.3C262.9,137.4,259.8,140.5,256,140.5z"/>
</g>
<path class="st7" d="M256.3,78.5v62c3.7-0.2,6.6-3.2,6.6-6.9V85.3C262.9,81.6,260,78.6,256.3,78.5z"/>
<g>
	<path class="st6" d="M169.6,171.4c-1.8,0-3.5-0.7-4.9-2l-34.1-34.1c-2.7-2.7-2.7-7.1,0-9.8c2.7-2.7,7.1-2.7,9.8,0l34.1,34.1
		c2.7,2.7,2.7,7.1,0,9.8C173.2,170.7,171.4,171.4,169.6,171.4z"/>
	<path class="st6" d="M106.7,247.2c-3.8,0-6.9-3.1-6.9-6.9c0-3.8,3.1-6.9,6.9-6.9l48.3,0h0c3.8,0,6.9,3.1,6.9,6.9s-3.1,6.9-6.9,6.9
		L106.7,247.2L106.7,247.2z"/>
</g>
<path class="st8" d="M256,426.7L256,426.7c-15.7,0-28.4-12.7-28.4-28.4v-41.8h56.9v41.8C284.4,413.9,271.7,426.7,256,426.7z"/>
<path class="st9" d="M256.3,356.5v70.2c15.6-0.2,28.2-12.8,28.2-28.4v-41.8H256.3z"/>
</svg>
