<?xml version="1.0" encoding="UTF-8"?>
<svg xmlns="http://www.w3.org/2000/svg" xmlns:xlink="http://www.w3.org/1999/xlink" width="107pt" height="150pt" viewBox="0 0 107 150" version="1.1">
<g id="surface1">
<path style=" stroke:none;fill-rule:nonzero;fill:rgb(0%,0%,0%);fill-opacity:1;" d="M 40.78125 1.210938 C 40.144531 1.144531 39.507812 1.164062 38.871094 1.191406 C 38.234375 1.164062 37.601562 1.144531 36.964844 1.210938 C 7.660156 1.6875 -11.542969 28.003906 -7.710938 54.21875 C -5.597656 68.980469 2.515625 76.933594 7.449219 82.117188 C 18.0625 93.246094 16.203125 96.464844 19.765625 102.039062 C 17.832031 104.515625 17.640625 108.328125 19.617188 110.832031 C 18.082031 113.355469 18.058594 116.902344 20.035156 119.199219 C 18.226562 122.023438 18.390625 126.015625 20.773438 128.109375 C 20.257812 131.398438 22.691406 136.972656 29.292969 136.859375 C 29.457031 137.484375 29.523438 140.003906 31.816406 141.488281 C 33.832031 142.839844 34.753906 142.238281 42.503906 142.425781 C 43.699219 142.441406 44.925781 142.160156 45.925781 141.488281 C 48.21875 140.003906 48.289062 137.484375 48.449219 136.859375 C 54.628906 136.964844 57.542969 131.75 56.972656 128.109375 C 59.375 125.996094 59.503906 121.996094 57.710938 119.199219 C 59.6875 116.902344 59.660156 113.355469 58.125 110.832031 C 60.105469 108.328125 59.910156 104.515625 57.980469 102.039062 C 59.621094 99.46875 60.398438 96.480469 61.707031 93.746094 C 65.273438 85.863281 72.214844 81.007812 77.195312 74.332031 C 98.480469 45.539062 78.949219 1.832031 40.78125 1.210938 Z M 40.78125 1.210938 "/>
<path style=" stroke:none;fill-rule:nonzero;fill:rgb(100%,100%,100%);fill-opacity:1;" d="M 31.742188 25.277344 C 36.050781 29.945312 35.65625 36.234375 30.664062 40.464844 C 34.785156 43.914062 36.234375 49.941406 33.269531 54.628906 C 31.359375 53.855469 29.09375 53.753906 27.21875 54.683594 C 25.855469 53.734375 24.140625 53.3125 22.503906 53.6875 C 21.261719 49.117188 17.382812 46.957031 12.726562 48 C 12.726562 46.855469 12.472656 45.710938 11.890625 44.71875 C 13.726562 44.550781 15.53125 43.800781 16.84375 42.488281 C 18.785156 44.832031 21.980469 45.5 24.777344 43.714844 C 25.503906 45.230469 26.757812 46.5 28.324219 47.140625 C 28.582031 46.507812 28.832031 45.871094 29.097656 45.238281 C 25.875 43.859375 24.867188 38.855469 28.34375 36.460938 C 27.953125 35.894531 27.566406 35.324219 27.171875 34.757812 C 24.96875 36.226562 23.792969 38.984375 24.167969 41.59375 C 21.984375 43.367188 19.472656 42.8125 18.128906 40.785156 C 18.777344 39.527344 18.996094 38.039062 18.597656 36.667969 C 21.597656 34.824219 21.878906 31.191406 20.585938 28.4375 C 24.746094 28.328125 27.539062 25.71875 27.675781 21.636719 C 29.652344 21.015625 31.214844 19.320312 31.664062 17.296875 C 31.007812 17.125 30.351562 16.96875 29.691406 16.835938 C 28.886719 20.402344 24.496094 20.785156 22.050781 17.996094 C 21.523438 18.4375 21.011719 18.898438 20.503906 19.363281 C 21.796875 20.839844 23.640625 21.851562 25.625 21.945312 C 24.558594 31.023438 9.847656 24.582031 12.816406 17.296875 C 13.652344 15.078125 16.25 13.363281 19.191406 14.578125 C 28.988281 0.105469 39.300781 15.136719 31.742188 25.277344 Z M 10.699219 21.480469 C 12.113281 25.148438 14.542969 26.90625 17.765625 28.054688 C 20.640625 30.335938 19.398438 35.5625 15.460938 35.390625 C 17.691406 37.933594 16.964844 40.1875 14.609375 41.605469 C 9.5 44.601562 8.128906 39.957031 2.058594 43.132812 C -1.769531 38.542969 2.320312 31.699219 7.972656 31.808594 C 5.003906 28.652344 4.910156 22.0625 10.699219 21.480469 Z M 10.03125 51.082031 C 15.039062 48.878906 19.3125 49.304688 20.613281 54.589844 C 19.078125 55.71875 18.242188 57.664062 18.5 59.550781 C 12.941406 63.269531 14.65625 71.234375 21.859375 71.960938 C 22.21875 74.605469 24.199219 76.8125 26.660156 77.753906 C 26.9375 77.128906 27.152344 76.480469 27.40625 75.84375 C 22.917969 74.015625 22.316406 68.0625 27.667969 66.636719 C 27.515625 65.96875 27.367188 65.304688 27.21875 64.640625 C 24.582031 65.222656 22.546875 66.960938 21.886719 69.890625 C 16.222656 69.179688 15.632812 63.335938 20.867188 60.609375 C 19.628906 55.34375 23.792969 54.285156 27.085938 57.359375 C 32.984375 52.414062 40.015625 62.378906 33.078125 69.757812 C 41.253906 78.589844 32.046875 89.445312 24.199219 81.4375 C 18.207031 83.847656 14.5625 80.378906 15.371094 74.292969 C 9.109375 76.078125 5.273438 71.140625 7.117188 64.988281 C 1.273438 63.148438 -0.890625 57.988281 -0.625 52.339844 C 0.175781 40.679688 14.109375 41.925781 10.03125 51.082031 Z M 10.03125 51.082031 "/>
<path style=" stroke:none;fill-rule:nonzero;fill:rgb(100%,100%,100%);fill-opacity:1;" d="M 58.554688 14.578125 C 61.484375 13.367188 64.089844 15.070312 64.929688 17.296875 C 67.898438 24.585938 53.1875 31.011719 52.121094 21.945312 C 54.105469 21.851562 55.945312 20.839844 57.242188 19.363281 C 56.734375 18.898438 56.222656 18.4375 55.695312 17.996094 C 53.25 20.78125 48.855469 20.40625 48.054688 16.835938 C 47.390625 16.96875 46.734375 17.125 46.082031 17.296875 C 46.527344 19.320312 48.09375 21.015625 50.070312 21.636719 C 50.207031 25.71875 53 28.328125 57.160156 28.4375 C 55.878906 31.164062 56.121094 34.808594 59.148438 36.667969 C 58.746094 38.039062 58.964844 39.527344 59.613281 40.785156 C 58.277344 42.808594 55.765625 43.371094 53.578125 41.59375 C 53.953125 38.984375 52.777344 36.226562 50.574219 34.757812 C 50.179688 35.324219 49.792969 35.894531 49.402344 36.460938 C 52.878906 38.855469 51.875 43.859375 48.648438 45.242188 C 48.914062 45.871094 49.160156 46.507812 49.417969 47.140625 C 50.988281 46.5 52.242188 45.234375 52.96875 43.714844 C 55.726562 45.476562 58.933594 44.867188 60.902344 42.488281 C 62.214844 43.800781 64.015625 44.550781 65.851562 44.71875 C 65.273438 45.710938 65.019531 46.855469 65.019531 48 C 60.367188 46.957031 56.484375 49.109375 55.242188 53.6875 C 53.605469 53.3125 51.886719 53.734375 50.527344 54.683594 C 48.652344 53.753906 46.386719 53.855469 44.476562 54.628906 C 41.507812 49.9375 42.964844 43.910156 47.078125 40.464844 C 42.085938 36.234375 41.695312 29.945312 46 25.277344 C 39.289062 16.269531 46.46875 5.523438 53.433594 9.355469 C 55.605469 10.558594 57.183594 12.554688 58.554688 14.578125 Z M 69.773438 31.808594 C 75.421875 31.699219 79.515625 38.539062 75.6875 43.132812 C 74.300781 42.40625 72.355469 41.320312 68.710938 42.394531 C 64.578125 43.628906 58.1875 40.0625 62.28125 35.390625 C 58.347656 35.5625 57.105469 30.339844 59.980469 28.054688 C 63.082031 26.949219 65.585938 25.273438 67.046875 21.480469 C 72.777344 22.054688 72.773438 28.617188 69.773438 31.808594 Z M 70.625 64.988281 C 72.46875 71.128906 68.652344 76.085938 62.375 74.292969 C 63.183594 80.378906 59.503906 83.832031 53.546875 81.4375 C 45.644531 89.496094 36.535156 78.542969 44.667969 69.757812 C 37.722656 62.371094 44.75 52.40625 50.660156 57.359375 C 53.910156 54.324219 58.128906 55.300781 56.878906 60.609375 C 62.089844 63.324219 61.542969 69.175781 55.859375 69.890625 C 55.203125 66.980469 53.183594 65.226562 50.523438 64.640625 C 50.375 65.304688 50.230469 65.96875 50.078125 66.636719 C 55.417969 68.0625 54.832031 74.011719 50.339844 75.84375 C 50.589844 76.480469 50.808594 77.128906 51.085938 77.753906 C 53.542969 76.8125 55.523438 74.605469 55.882812 71.960938 C 63.09375 71.234375 64.800781 63.265625 59.242188 59.550781 C 59.5 57.664062 58.667969 55.71875 57.132812 54.589844 C 58.4375 49.289062 62.710938 48.882812 67.710938 51.082031 C 64.417969 43.683594 72.308594 42.375 75.675781 45.667969 C 79.929688 49.738281 79.96875 62.050781 70.625 64.988281 Z M 70.625 64.988281 "/>
</g>
</svg>
