<svg xmlns="http://www.w3.org/2000/svg" enable-background="new 0 0 64 64" viewBox="0 0 64 64"><path d="M35.21,0.12c-9-0.69-16.49,1.61-21.11,6.5c-3.23,3.41-4.89,8.02-4.89,13.46c0,1.29,0.1,2.63,0.28,4
		c0.06,0.46-0.01,0.89-0.18,1.28L4.26,35.91c-0.43,0.71-0.45,1.55-0.04,2.26c0.41,0.73,1.18,1.18,2.03,1.2l2.17,0.24v6.62
		c0,2.79,2.39,5.07,5.32,5.07h6.5L19.3,62.95c-0.02,0.27,0.07,0.53,0.25,0.74C19.74,63.88,20,64,20.27,64H44.6
		c0.31,0,0.61-0.16,0.8-0.42c0.17-0.26,0.22-0.59,0.11-0.89c-0.04-0.11-3.86-10.84,3.8-17.68c7.25-6.48,10.77-12.86,10.77-19.5
		C60.07,14.69,53.57,1.55,35.21,0.12z M22.03,37.33c-0.18,0-0.37-0.06-0.53-0.16c-0.39-0.26-0.54-0.76-0.37-1.18l4.24-10.27h-3.01
		c-0.33,0-0.63-0.16-0.81-0.44c-0.17-0.27-0.2-0.62-0.07-0.92l6.06-13.78c0.16-0.36,0.5-0.58,0.89-0.58h8.16
		c0.33,0,0.63,0.16,0.81,0.45c0.17,0.27,0.2,0.62,0.07,0.92l-2.95,6.62h4.1c0.39,0,0.74,0.23,0.89,0.59
		c0.16,0.35,0.08,0.77-0.18,1.05l-16.61,17.4C22.55,37.22,22.3,37.33,22.03,37.33z M42.67,36.84L31.03,49.03
		c-0.18,0.2-0.44,0.3-0.7,0.3c-0.18,0-0.37-0.05-0.52-0.16c-0.4-0.25-0.55-0.75-0.37-1.18l2.8-6.79h-1.68
		c-0.33,0-0.63-0.16-0.81-0.45c-0.17-0.27-0.2-0.62-0.07-0.92l4.25-9.66c0.16-0.35,0.5-0.57,0.88-0.57h5.73
		c0.32,0,0.63,0.16,0.8,0.44c0.18,0.28,0.21,0.62,0.08,0.92l-1.88,4.24h2.42c0.39,0,0.74,0.23,0.89,0.59
		C43.02,36.15,42.94,36.56,42.67,36.84z"/><path d="M32.22 19.48c-.17-.27-.2-.62-.07-.92l2.95-6.62h-6.04l-5.22 11.84h2.97c.33 0 .63.16.81.44.17.26.21.61.09.9l-2.81 6.83 11.47-12.01h-3.34C32.71 19.93 32.41 19.76 32.22 19.48zM37.24 36.7c-.18-.28-.21-.63-.08-.93l1.89-4.23h-3.6l-3.4 7.72h1.64c.32 0 .62.16.8.43.18.27.21.61.09.91l-1.38 3.35 6.5-6.82h-1.65C37.72 37.14 37.41 36.98 37.24 36.7z"/></svg>