<?xml version="1.0" encoding="UTF-8"?>
<svg xmlns="http://www.w3.org/2000/svg" xmlns:xlink="http://www.w3.org/1999/xlink" width="150pt" height="150pt" viewBox="0 0 150 150" version="1.1">
<g id="surface1">
<path style=" stroke:none;fill-rule:nonzero;fill:rgb(96.470588%,76.470588%,34.509804%);fill-opacity:1;" d="M 150 64.097656 C 150 57.058594 146.511719 50.546875 140.742188 46.558594 C 141.378906 44.859375 141.714844 43.054688 141.714844 41.230469 C 141.714844 33.6875 136.152344 27.394531 128.847656 26.113281 C 128.472656 18.464844 122.382812 12.269531 114.695312 11.574219 C 112.402344 6.765625 107.402344 3.554688 101.898438 3.554688 C 100.484375 3.554688 99.078125 3.765625 97.738281 4.171875 C 95.648438 1.578125 92.4375 0 88.992188 0 C 82.835938 0 77.832031 4.921875 77.832031 10.96875 L 77.832031 50.207031 C 77.832031 54.980469 79.996094 59.488281 83.574219 62.558594 C 79.960938 65.804688 77.832031 70.433594 77.832031 75.378906 L 77.832031 99.527344 C 77.832031 102.453125 78.566406 105.289062 79.976562 107.832031 C 78.566406 110.273438 77.832031 113.019531 77.832031 115.871094 L 77.832031 134.644531 C 77.832031 143.109375 84.839844 150 93.449219 150 C 99.085938 150 104.15625 147.058594 106.917969 142.429688 C 108.894531 143.292969 111.039062 143.742188 113.246094 143.742188 C 121.761719 143.742188 128.707031 137.007812 128.867188 128.675781 C 137.542969 126.167969 143.609375 118.355469 143.609375 109.246094 C 143.609375 106.074219 142.867188 103.003906 141.445312 100.207031 C 146.726562 96.878906 150 91.117188 150 84.804688 C 150 81.289062 148.957031 77.835938 147.035156 74.894531 C 148.980469 71.621094 150 67.925781 150 64.097656 Z M 150 64.097656 "/>
<path style=" stroke:none;fill-rule:nonzero;fill:rgb(98.823529%,83.137255%,38.431373%);fill-opacity:1;" d="M 138.84375 95.320312 C 135.027344 88.816406 127.386719 87.492188 123.394531 87.28125 C 122.609375 84.03125 120.773438 81.09375 118.085938 78.917969 C 116.898438 77.960938 115.152344 78.125 114.183594 79.289062 C 113.207031 80.449219 113.375 82.167969 114.558594 83.125 C 116.925781 85.042969 118.285156 87.871094 118.285156 90.875 C 118.285156 96.40625 113.710938 100.90625 108.085938 100.90625 C 102.460938 100.90625 97.886719 96.40625 97.886719 90.875 C 97.886719 88.472656 98.765625 86.152344 100.355469 84.332031 C 100.390625 84.292969 100.398438 84.238281 100.433594 84.195312 C 101.199219 84.082031 101.964844 83.917969 102.714844 83.640625 C 108.546875 81.5 111.523438 75.097656 109.351562 69.363281 C 108.8125 67.953125 107.21875 67.246094 105.78125 67.761719 C 104.34375 68.289062 103.617188 69.859375 104.148438 71.269531 C 105.253906 74.183594 103.742188 77.441406 100.777344 78.527344 C 97.808594 79.617188 94.496094 78.125 93.394531 75.214844 C 92.859375 73.800781 91.257812 73.085938 89.824219 73.613281 C 88.390625 74.136719 87.660156 75.707031 88.199219 77.121094 C 89.316406 80.070312 91.597656 82.253906 94.328125 83.410156 C 93.050781 85.683594 92.339844 88.242188 92.339844 90.875 C 92.339844 99.414062 99.402344 106.359375 108.085938 106.359375 C 116.113281 106.359375 122.742188 100.421875 123.699219 92.777344 C 127.117188 93.058594 133.117188 94.355469 134.929688 99.972656 C 135.011719 100.222656 135.140625 100.445312 135.28125 100.65625 C 135.296875 100.675781 135.296875 100.699219 135.308594 100.71875 C 137.109375 103.226562 138.0625 106.175781 138.0625 109.246094 C 138.0625 115.445312 134.199219 120.796875 128.550781 122.984375 C 127.660156 117.648438 124.09375 114.179688 123.910156 114.003906 C 122.796875 112.964844 121.042969 113.011719 119.984375 114.105469 C 118.933594 115.199219 118.976562 116.925781 120.089844 117.960938 C 120.125 117.992188 123.699219 121.476562 123.191406 126.253906 C 123.179688 126.375 123.222656 126.480469 123.226562 126.597656 C 123.230469 126.714844 123.191406 126.824219 123.210938 126.941406 C 123.28125 127.414062 123.320312 127.894531 123.320312 128.382812 C 123.320312 133.84375 118.800781 138.285156 113.246094 138.285156 C 111.898438 138.285156 110.597656 138 109.375 137.496094 C 110.609375 134.257812 110.828125 129.390625 107.027344 124.191406 C 108.863281 121.1875 108.824219 117.269531 106.609375 114.253906 C 105.710938 113.035156 103.972656 112.757812 102.734375 113.640625 C 101.496094 114.523438 101.214844 116.230469 102.113281 117.453125 C 103.285156 119.042969 102.917969 121.273438 101.296875 122.421875 C 99.683594 123.574219 97.410156 123.21875 96.238281 121.625 C 95.335938 120.402344 93.601562 120.128906 92.363281 121.011719 C 91.121094 121.894531 90.84375 123.601562 91.742188 124.820312 C 93.535156 127.257812 96.34375 128.550781 99.1875 128.550781 C 100.417969 128.550781 101.652344 128.285156 102.816406 127.785156 C 106.28125 132.871094 103.820312 136.441406 103.472656 136.890625 C 103.320312 137.085938 103.242188 137.304688 103.148438 137.523438 C 103.117188 137.597656 103.046875 137.648438 103.019531 137.726562 C 101.664062 141.804688 97.816406 144.546875 93.449219 144.546875 C 87.898438 144.546875 83.378906 140.101562 83.378906 134.644531 L 83.378906 115.871094 C 83.378906 114.535156 83.648438 113.242188 84.117188 112.023438 C 86.589844 113.625 90.558594 115.457031 96.027344 115.457031 C 96.285156 115.457031 96.550781 115.453125 96.816406 115.441406 C 98.347656 115.394531 99.546875 114.136719 99.496094 112.628906 C 99.449219 111.15625 98.21875 109.992188 96.726562 109.992188 C 96.695312 109.992188 96.664062 109.992188 96.636719 109.992188 C 96.425781 110 96.222656 110 96.023438 110 C 89.667969 110 86.101562 106.8125 85.445312 106.167969 C 84.101562 104.199219 83.378906 101.910156 83.378906 99.527344 L 83.378906 75.382812 C 83.378906 70.988281 85.824219 66.960938 89.761719 64.878906 C 89.828125 64.84375 89.875 64.789062 89.9375 64.75 C 89.972656 64.726562 90.015625 64.726562 90.050781 64.699219 C 90.65625 64.28125 96.140625 60.773438 101.933594 65.621094 C 102.453125 66.058594 103.09375 66.273438 103.730469 66.273438 C 104.511719 66.273438 105.292969 65.949219 105.84375 65.3125 C 106.835938 64.167969 106.695312 62.445312 105.527344 61.46875 C 99.136719 56.121094 92.257812 57.402344 88.414062 59.324219 C 85.320312 57.332031 83.378906 53.894531 83.378906 50.207031 L 83.378906 10.96875 C 83.378906 7.929688 85.894531 5.453125 88.992188 5.453125 C 90.933594 5.453125 92.683594 6.492188 93.699219 8.09375 C 93.207031 10.3125 92.039062 13.390625 90.339844 14.382812 C 89.023438 15.148438 88.589844 16.820312 89.367188 18.117188 C 89.886719 18.980469 90.808594 19.457031 91.757812 19.457031 C 92.238281 19.457031 92.722656 19.332031 93.167969 19.074219 C 96.855469 16.925781 98.445312 12.109375 99.050781 9.550781 C 99.964844 9.230469 100.917969 9.011719 101.898438 9.011719 C 105.570312 9.011719 108.859375 11.371094 110.015625 14.777344 C 110.050781 16.285156 109.953125 22.324219 106.535156 26.085938 C 105.222656 27.535156 103.558594 28.46875 101.519531 28.9375 C 100.898438 26.089844 98.855469 23.613281 95.863281 22.585938 C 94.429688 22.089844 92.839844 22.839844 92.332031 24.261719 C 91.828125 25.683594 92.589844 27.238281 94.039062 27.734375 C 95.710938 28.308594 96.59375 30.113281 96.015625 31.753906 C 95.433594 33.398438 93.601562 34.273438 91.929688 33.695312 C 90.476562 33.203125 88.902344 33.953125 88.398438 35.375 C 87.894531 36.796875 88.660156 38.351562 90.105469 38.847656 C 91.054688 39.171875 92.023438 39.328125 92.976562 39.328125 C 96.25 39.328125 99.320312 37.5 100.8125 34.53125 C 104.847656 34.042969 108.199219 32.460938 110.699219 29.695312 C 114.238281 25.777344 115.230469 20.539062 115.484375 17.226562 C 119.964844 18.230469 123.320312 22.160156 123.320312 26.863281 C 123.320312 27.324219 123.28125 27.785156 123.222656 28.234375 C 123.195312 28.433594 123.261719 28.625 123.285156 28.820312 C 123.089844 30.539062 122.332031 33.492188 121.042969 34.308594 C 119.757812 35.128906 119.386719 36.816406 120.21875 38.082031 C 120.75 38.886719 121.640625 39.328125 122.550781 39.328125 C 123.066406 39.328125 123.589844 39.1875 124.054688 38.890625 C 126.667969 37.230469 127.871094 34 128.421875 31.621094 C 132.851562 32.65625 136.167969 36.558594 136.167969 41.230469 C 136.167969 42.058594 136.050781 42.886719 135.84375 43.683594 C 131.070312 41.542969 123.320312 40.429688 115.28125 45.632812 C 112.933594 44.128906 110.191406 43.375 107.359375 43.550781 C 103.890625 43.777344 100.71875 45.316406 98.429688 47.890625 C 97.421875 49.023438 97.539062 50.746094 98.691406 51.738281 C 99.839844 52.726562 101.589844 52.617188 102.605469 51.480469 C 103.917969 50.007812 105.734375 49.125 107.722656 48.996094 C 109.703125 48.871094 111.636719 49.503906 113.136719 50.796875 C 116.230469 53.460938 116.542969 58.105469 113.832031 61.152344 C 112.824219 62.285156 112.941406 64.007812 114.09375 65.003906 C 114.621094 65.457031 115.269531 65.675781 115.921875 65.675781 C 116.691406 65.675781 117.460938 65.363281 118.007812 64.746094 C 121.851562 60.425781 122.148438 54.285156 119.242188 49.636719 C 128.117188 44.519531 135.179688 49.53125 135.507812 49.773438 C 135.570312 49.820312 135.648438 49.828125 135.710938 49.871094 C 135.773438 49.90625 135.8125 49.96875 135.875 50.003906 C 141.164062 52.796875 144.453125 58.195312 144.453125 64.097656 C 144.453125 66.234375 143.980469 68.300781 143.15625 70.238281 C 141.074219 68.539062 138.867188 67.886719 137.171875 67.671875 C 136.152344 63.34375 132.921875 59.757812 128.5 58.363281 C 127.054688 57.910156 125.480469 58.699219 125.011719 60.128906 C 124.542969 61.5625 125.347656 63.101562 126.808594 63.558594 C 129.84375 64.515625 131.925781 67.265625 131.992188 70.398438 C 132.046875 73.035156 130.644531 75.511719 128.335938 76.863281 C 127.019531 77.632812 126.585938 79.304688 127.371094 80.601562 C 127.886719 81.457031 128.808594 81.933594 129.757812 81.933594 C 130.238281 81.933594 130.726562 81.8125 131.167969 81.550781 C 134.320312 79.710938 136.476562 76.660156 137.230469 73.222656 C 138.472656 73.546875 140.039062 74.355469 141.308594 76.402344 C 141.351562 76.472656 141.410156 76.519531 141.457031 76.582031 C 141.484375 76.621094 141.496094 76.664062 141.523438 76.699219 C 143.4375 79.015625 144.449219 81.816406 144.449219 84.804688 C 144.453125 89.066406 142.300781 92.949219 138.84375 95.320312 Z M 138.84375 95.320312 "/>
<path style=" stroke:none;fill-rule:nonzero;fill:rgb(96.470588%,76.470588%,34.509804%);fill-opacity:1;" d="M 2.964844 74.894531 C 1.042969 77.835938 0 81.289062 0 84.804688 C 0 91.117188 3.273438 96.878906 8.554688 100.207031 C 7.132812 103.003906 6.390625 106.074219 6.390625 109.246094 C 6.390625 118.355469 12.457031 126.167969 21.132812 128.675781 C 21.292969 137.007812 28.238281 143.742188 36.753906 143.742188 C 38.960938 143.742188 41.105469 143.292969 43.082031 142.425781 C 45.84375 147.058594 50.914062 150 56.550781 150 C 65.160156 150 72.167969 143.109375 72.167969 134.644531 L 72.167969 115.871094 C 72.167969 113.019531 71.433594 110.273438 70.023438 107.832031 C 71.433594 105.289062 72.167969 102.453125 72.167969 99.527344 L 72.167969 75.378906 C 72.167969 70.433594 70.039062 65.804688 66.425781 62.554688 C 70.003906 59.488281 72.167969 54.980469 72.167969 50.207031 L 72.167969 10.96875 C 72.167969 4.921875 67.164062 0 61.007812 0 C 57.5625 0 54.351562 1.578125 52.261719 4.171875 C 50.921875 3.765625 49.515625 3.554688 48.101562 3.554688 C 42.597656 3.554688 37.597656 6.769531 35.304688 11.570312 C 27.617188 12.269531 21.527344 18.464844 21.152344 26.113281 C 13.847656 27.394531 8.285156 33.6875 8.285156 41.230469 C 8.285156 43.054688 8.621094 44.859375 9.257812 46.558594 C 3.488281 50.546875 0 57.058594 0 64.097656 C 0 67.925781 1.019531 71.621094 2.964844 74.894531 Z M 2.964844 74.894531 "/>
<path style=" stroke:none;fill-rule:nonzero;fill:rgb(98.823529%,83.137255%,38.431373%);fill-opacity:1;" d="M 5.546875 84.804688 C 5.546875 81.816406 6.5625 79.015625 8.472656 76.703125 C 8.503906 76.664062 8.515625 76.621094 8.542969 76.582031 C 8.589844 76.519531 8.648438 76.472656 8.691406 76.402344 C 9.960938 74.359375 11.527344 73.546875 12.769531 73.222656 C 13.523438 76.660156 15.679688 79.710938 18.828125 81.550781 C 19.273438 81.8125 19.761719 81.933594 20.242188 81.933594 C 21.1875 81.933594 22.113281 81.457031 22.628906 80.601562 C 23.414062 79.304688 22.980469 77.632812 21.664062 76.863281 C 19.355469 75.515625 17.953125 73.039062 18.007812 70.402344 C 18.074219 67.265625 20.15625 64.515625 23.191406 63.558594 C 24.648438 63.101562 25.453125 61.5625 24.984375 60.132812 C 24.519531 58.699219 22.945312 57.914062 21.5 58.363281 C 17.078125 59.757812 13.84375 63.34375 12.824219 67.671875 C 11.132812 67.886719 8.925781 68.539062 6.84375 70.238281 C 6.019531 68.300781 5.546875 66.234375 5.546875 64.097656 C 5.546875 58.199219 8.835938 52.796875 14.125 50.003906 C 14.191406 49.96875 14.230469 49.90625 14.289062 49.871094 C 14.355469 49.828125 14.429688 49.820312 14.492188 49.773438 C 14.820312 49.53125 21.886719 44.519531 30.757812 49.636719 C 27.851562 54.285156 28.148438 60.425781 31.992188 64.746094 C 32.542969 65.363281 33.308594 65.675781 34.078125 65.675781 C 34.730469 65.675781 35.378906 65.457031 35.90625 65.003906 C 37.058594 64.007812 37.175781 62.285156 36.167969 61.152344 C 33.457031 58.105469 33.769531 53.460938 36.863281 50.796875 C 38.367188 49.503906 40.296875 48.871094 42.277344 48.996094 C 44.265625 49.125 46.082031 50.007812 47.394531 51.480469 C 48.410156 52.617188 50.160156 52.726562 51.308594 51.738281 C 52.460938 50.746094 52.578125 49.023438 51.570312 47.890625 C 49.28125 45.316406 46.109375 43.777344 42.640625 43.550781 C 39.808594 43.375 37.066406 44.128906 34.71875 45.632812 C 26.679688 40.429688 18.929688 41.542969 14.160156 43.683594 C 13.949219 42.886719 13.832031 42.058594 13.832031 41.230469 C 13.832031 36.558594 17.148438 32.65625 21.578125 31.621094 C 22.128906 34 23.332031 37.230469 25.945312 38.890625 C 26.410156 39.1875 26.933594 39.328125 27.449219 39.328125 C 28.359375 39.328125 29.25 38.886719 29.78125 38.082031 C 30.613281 36.816406 30.242188 35.128906 28.957031 34.308594 C 27.667969 33.492188 26.910156 30.539062 26.714844 28.820312 C 26.738281 28.625 26.804688 28.433594 26.78125 28.234375 C 26.71875 27.789062 26.679688 27.328125 26.679688 26.863281 C 26.679688 22.160156 30.035156 18.230469 34.515625 17.226562 C 34.769531 20.539062 35.761719 25.777344 39.300781 29.695312 C 41.800781 32.460938 45.152344 34.042969 49.1875 34.53125 C 50.679688 37.5 53.75 39.328125 57.023438 39.328125 C 57.976562 39.328125 58.945312 39.171875 59.894531 38.847656 C 61.339844 38.351562 62.105469 36.796875 61.601562 35.375 C 61.097656 33.953125 59.523438 33.203125 58.070312 33.695312 C 56.398438 34.273438 54.566406 33.398438 53.984375 31.753906 C 53.40625 30.113281 54.289062 28.308594 55.960938 27.734375 C 57.410156 27.238281 58.171875 25.683594 57.667969 24.261719 C 57.164062 22.839844 55.570312 22.089844 54.136719 22.585938 C 51.144531 23.613281 49.101562 26.089844 48.480469 28.9375 C 46.441406 28.46875 44.777344 27.535156 43.464844 26.085938 C 40.046875 22.324219 39.949219 16.285156 39.984375 14.777344 C 41.140625 11.371094 44.429688 9.011719 48.101562 9.011719 C 49.082031 9.011719 50.035156 9.230469 50.949219 9.550781 C 51.554688 12.109375 53.144531 16.925781 56.832031 19.074219 C 57.277344 19.332031 57.761719 19.457031 58.242188 19.457031 C 59.191406 19.457031 60.113281 18.980469 60.632812 18.117188 C 61.410156 16.820312 60.980469 15.148438 59.660156 14.382812 C 57.957031 13.390625 56.792969 10.3125 56.300781 8.09375 C 57.316406 6.492188 59.066406 5.453125 61.007812 5.453125 C 64.105469 5.453125 66.621094 7.929688 66.621094 10.96875 L 66.621094 50.207031 C 66.621094 53.894531 64.679688 57.332031 61.585938 59.324219 C 57.742188 57.402344 50.863281 56.121094 44.472656 61.46875 C 43.304688 62.445312 43.164062 64.167969 44.15625 65.3125 C 44.707031 65.945312 45.488281 66.273438 46.269531 66.273438 C 46.90625 66.273438 47.546875 66.058594 48.070312 65.621094 C 53.859375 60.773438 59.34375 64.28125 59.949219 64.699219 C 59.984375 64.722656 60.027344 64.726562 60.0625 64.75 C 60.125 64.789062 60.171875 64.839844 60.238281 64.875 C 64.175781 66.960938 66.621094 70.988281 66.621094 75.378906 L 66.621094 99.527344 C 66.621094 101.910156 65.898438 104.199219 64.554688 106.167969 C 63.898438 106.8125 60.332031 110 53.976562 110 C 53.777344 110 53.574219 110 53.363281 109.992188 C 53.335938 109.992188 53.304688 109.992188 53.273438 109.992188 C 51.78125 109.992188 50.550781 111.15625 50.503906 112.628906 C 50.453125 114.136719 51.652344 115.394531 53.183594 115.441406 C 53.449219 115.453125 53.714844 115.457031 53.972656 115.457031 C 59.441406 115.457031 63.410156 113.625 65.882812 112.019531 C 66.351562 113.242188 66.621094 114.535156 66.621094 115.871094 L 66.621094 134.644531 C 66.621094 140.101562 62.101562 144.546875 56.550781 144.546875 C 52.183594 144.546875 48.335938 141.804688 46.980469 137.726562 C 46.953125 137.648438 46.882812 137.597656 46.851562 137.519531 C 46.757812 137.304688 46.679688 137.082031 46.527344 136.890625 C 46.179688 136.441406 43.71875 132.871094 47.183594 127.785156 C 48.347656 128.285156 49.582031 128.550781 50.8125 128.550781 C 53.65625 128.550781 56.464844 127.257812 58.257812 124.820312 C 59.15625 123.601562 58.878906 121.894531 57.636719 121.011719 C 56.398438 120.128906 54.664062 120.402344 53.761719 121.625 C 52.589844 123.21875 50.316406 123.574219 48.703125 122.421875 C 47.082031 121.273438 46.714844 119.039062 47.886719 117.449219 C 48.785156 116.230469 48.503906 114.523438 47.265625 113.640625 C 46.027344 112.757812 44.289062 113.035156 43.390625 114.253906 C 41.175781 117.269531 41.136719 121.1875 42.972656 124.191406 C 39.171875 129.390625 39.390625 134.257812 40.625 137.496094 C 39.402344 137.996094 38.101562 138.285156 36.753906 138.285156 C 31.199219 138.285156 26.679688 133.84375 26.679688 128.382812 C 26.679688 127.894531 26.71875 127.414062 26.789062 126.941406 C 26.808594 126.824219 26.769531 126.714844 26.773438 126.597656 C 26.777344 126.480469 26.820312 126.375 26.804688 126.253906 C 26.300781 121.476562 29.871094 117.992188 29.910156 117.960938 C 31.019531 116.925781 31.066406 115.195312 30.011719 114.105469 C 28.953125 113.011719 27.203125 112.964844 26.089844 114.003906 C 25.90625 114.175781 22.339844 117.648438 21.449219 122.984375 C 15.800781 120.796875 11.9375 115.445312 11.9375 109.246094 C 11.9375 106.171875 12.886719 103.226562 14.691406 100.71875 C 14.703125 100.699219 14.703125 100.675781 14.71875 100.65625 C 14.859375 100.445312 14.988281 100.222656 15.070312 99.96875 C 16.882812 94.351562 22.878906 93.058594 26.296875 92.777344 C 27.257812 100.417969 33.886719 106.359375 41.914062 106.359375 C 50.59375 106.359375 57.660156 99.414062 57.660156 90.875 C 57.660156 88.242188 56.945312 85.683594 55.671875 83.410156 C 58.402344 82.253906 60.683594 80.070312 61.800781 77.121094 C 62.339844 75.707031 61.609375 74.136719 60.175781 73.613281 C 58.742188 73.085938 57.140625 73.800781 56.605469 75.210938 C 55.5 78.125 52.191406 79.613281 49.222656 78.527344 C 46.257812 77.441406 44.746094 74.183594 45.847656 71.269531 C 46.382812 69.859375 45.65625 68.289062 44.21875 67.761719 C 42.78125 67.246094 41.1875 67.953125 40.648438 69.363281 C 38.476562 75.097656 41.453125 81.5 47.28125 83.640625 C 48.035156 83.914062 48.800781 84.082031 49.566406 84.195312 C 49.601562 84.238281 49.609375 84.289062 49.644531 84.332031 C 51.234375 86.152344 52.113281 88.472656 52.113281 90.875 C 52.113281 96.40625 47.535156 100.90625 41.914062 100.90625 C 36.289062 100.90625 31.714844 96.40625 31.714844 90.875 C 31.714844 87.867188 33.070312 85.042969 35.441406 83.125 C 36.625 82.167969 36.792969 80.449219 35.816406 79.289062 C 34.847656 78.125 33.097656 77.957031 31.914062 78.917969 C 29.226562 81.09375 27.390625 84.03125 26.605469 87.28125 C 22.613281 87.492188 14.972656 88.816406 11.15625 95.320312 C 7.699219 92.949219 5.546875 89.066406 5.546875 84.804688 Z M 5.546875 84.804688 "/>
</g>
</svg>
