<?xml version="1.0" encoding="iso-8859-1"?>
<!-- Generator: Adobe Illustrator 19.0.0, SVG Export Plug-In . SVG Version: 6.00 Build 0)  -->
<svg version="1.1" id="Layer_1" xmlns="http://www.w3.org/2000/svg" xmlns:xlink="http://www.w3.org/1999/xlink" x="0px" y="0px"
	 viewBox="0 0 511.598 511.598" style="enable-background:new 0 0 511.598 511.598;" xml:space="preserve">
<polygon style="fill:#FFCE54;" points="217.026,227.807 149.219,419.984 191.85,419.984 170.538,505.245 319.75,356.034 
	277.127,356.034 362.389,227.807 "/>
<path style="fill:#EC87C0;" d="M218.798,311.333c-25.34,0-48.712-11.568-64.122-31.725l-3.981-5.199l-6.433,1.187
	c-3.56,0.655-7.205,0.999-10.827,0.999c-32.436,0-58.821-26.385-58.821-58.82c0-19.024,9.274-36.964,24.809-48.002l4.56-3.231
	l-0.078-6.098c-0.008-0.241-0.008-0.491-0.008-0.733c0-54.605,44.418-99.024,99.016-99.024c2.639,0,5.348,0.109,8.057,0.328
	l5.862,0.469l3.521-4.708c9.04-12.076,20.891-22.084,34.278-28.938c14.02-7.182,29.18-10.819,45.059-10.819
	c17.283,0,34.285,4.513,49.18,13.053c14.458,8.29,26.683,20.195,35.395,34.426l2.451,4.028l4.637,0.882
	c46.526,8.892,80.312,49.789,80.312,97.252c0,5.785-0.5,11.593-1.498,17.261l-1.203,6.846l5.793,3.864
	c16.393,10.952,26.198,29.259,26.198,48.954c0,32.436-26.386,58.821-58.829,58.821c-14.052,0-27.666-5.043-38.314-14.192
	l-6.807-5.839l-6.916,5.683c-14.38,11.804-32.553,18.313-51.195,18.313c-18.578,0-36.064-6.15-50.522-17.782l-7.261-5.854
	l-6.76,6.416C259.289,303.449,239.563,311.333,218.798,311.333z"/>
<g>
	<path style="fill:#D770AD;" d="M480.655,185.76c1.093-6.206,1.671-12.584,1.671-19.103c0-53.497-38.299-98.04-88.978-107.72
		c-19.267-31.53-54.005-52.584-93.661-52.584c-35.957,0-67.869,17.307-87.869,44.035c-2.935-0.233-5.909-0.358-8.907-0.358
		c-60.569,0-109.68,49.102-109.68,109.68c0,0.461,0.016,0.913,0.023,1.374c-17.736,12.592-29.305,33.286-29.305,56.69
		c0,38.368,31.108,69.469,69.484,69.469c4.364,0,8.634-0.406,12.771-1.155c16.682,21.826,42.989,35.909,72.592,35.909
		c24.371,0,46.511-9.555,62.888-25.105c15.645,12.584,35.551,20.141,57.205,20.141c22.015,0,42.186-7.775,57.955-20.75
		c12.162,10.461,27.979,16.784,45.277,16.784c38.376,0,69.477-31.116,69.477-69.484C511.6,219.469,499.313,198.219,480.655,185.76z
		 M442.123,291.74c-11.522,0-22.654-4.121-31.382-11.615l-13.583-11.687l-13.833,11.374c-12.662,10.398-28.009,15.894-44.435,15.894
		c-16.143,0-31.287-5.34-43.84-15.425l-14.521-11.694l-13.528,12.849c-13.06,12.396-30.18,19.235-48.204,19.235
		c-11.101,0-21.71-2.498-31.522-7.463c-9.384-4.746-17.729-11.694-24.138-20.078l-7.946-10.397l-12.881,2.389
		c-2.92,0.538-5.901,0.819-8.876,0.819c-26.558,0-48.165-21.608-48.165-48.165c0-15.574,7.595-30.273,20.327-39.306l9.11-6.479
		l-0.141-11.179l-0.008-0.546c0-0.18-0.008-0.367-0.008-0.555c0-23.606,9.196-45.792,25.878-62.482
		c16.69-16.69,38.884-25.886,62.482-25.886c2.358,0,4.786,0.102,7.206,0.296l11.725,0.938l7.042-9.415
		c8.071-10.788,18.657-19.719,30.601-25.839c12.506-6.401,26.042-9.648,40.203-9.648c15.426,0,30.586,4.027,43.871,11.639
		c12.912,7.4,23.842,18.033,31.602,30.742l4.918,8.048l9.273,1.772c41.53,7.931,71.662,44.434,71.662,86.783
		c0,5.168-0.468,10.359-1.342,15.418l-2.404,13.692l11.553,7.721c13.443,8.978,21.469,23.966,21.469,40.094
		C490.289,270.141,468.68,291.74,442.123,291.74z"/>
	<path style="fill:#D770AD;" d="M409.18,110.483c-0.905-18.259-6.261-35.347-15.02-50.187h-25.886
		c11.632,14.293,18.438,31.693,19.563,50.187H409.18z"/>
</g>
<path style="fill:#EC87C0;" d="M154.848,343.715c-25.34,0-48.712-11.569-64.122-31.741l-3.981-5.184l-6.432,1.187
	c-3.561,0.656-7.206,0.999-10.828,0.999c-32.436,0-58.821-26.385-58.821-58.828c0-19.017,9.274-36.964,24.809-47.994l4.56-3.239
	l-0.078-6.098c-0.008-0.241-0.008-0.483-0.008-0.733c0-54.598,44.418-99.017,99.017-99.017c2.646,0,5.354,0.109,8.056,0.328
	l5.862,0.469l3.521-4.708c9.039-12.084,20.89-22.092,34.277-28.945c14.021-7.183,29.181-10.82,45.059-10.82
	c17.283,0,34.286,4.513,49.181,13.053c14.457,8.29,26.682,20.195,35.395,34.426l2.451,4.028l4.637,0.89
	c46.525,8.892,80.312,49.789,80.312,97.245c0,5.792-0.5,11.6-1.5,17.268l-1.201,6.846l5.792,3.856
	c16.394,10.96,26.198,29.258,26.198,48.954c0,32.428-26.386,58.813-58.829,58.813c-14.052,0-27.666-5.027-38.313-14.192
	l-6.808-5.839l-6.917,5.698c-14.379,11.804-32.553,18.314-51.193,18.314c-18.587,0-36.065-6.151-50.523-17.783l-7.268-5.854
	l-6.761,6.416C195.339,335.831,175.612,343.715,154.848,343.715z"/>
<g>
	<path style="fill:#D770AD;" d="M416.705,218.141c1.094-6.206,1.671-12.592,1.671-19.109c0-53.49-38.298-98.033-88.978-107.721
		c-19.266-31.53-54.005-52.576-93.661-52.576c-35.956,0-67.869,17.299-87.869,44.036c-2.935-0.242-5.909-0.367-8.906-0.367
		c-60.57,0-109.681,49.11-109.681,109.68c0,0.461,0.016,0.921,0.023,1.382C11.569,206.049,0,226.751,0,250.148
		c0,38.376,31.108,69.477,69.484,69.477c4.364,0,8.634-0.406,12.771-1.171c16.683,21.843,42.99,35.925,72.592,35.925
		c24.371,0,46.511-9.555,62.889-25.121c15.651,12.6,35.55,20.156,57.205,20.156c22.014,0,42.186-7.791,57.954-20.749
		c12.163,10.444,27.979,16.783,45.277,16.783c38.376,0,69.478-31.116,69.478-69.492C447.651,251.842,435.362,230.6,416.705,218.141z
		 M378.173,324.121c-11.522,0-22.654-4.121-31.382-11.615l-13.583-11.694l-13.833,11.382c-12.662,10.398-28.01,15.894-44.434,15.894
		c-16.129,0-31.296-5.339-43.841-15.425l-14.527-11.71l-13.521,12.864c-13.06,12.397-30.18,19.235-48.204,19.235
		c-11.101,0-21.71-2.514-31.522-7.479c-9.383-4.73-17.729-11.679-24.138-20.062l-7.946-10.397l-12.881,2.389
		c-2.92,0.546-5.901,0.812-8.876,0.812c-26.558,0-48.165-21.608-48.165-48.165c0-15.574,7.596-30.266,20.327-39.306l9.11-6.472
		l-0.141-11.179l-0.008-0.546c0-0.188-0.008-0.375-0.008-0.562c0-23.599,9.196-45.792,25.879-62.482
		c16.689-16.69,38.883-25.878,62.482-25.878c2.365,0,4.785,0.102,7.197,0.289l11.725,0.944l7.05-9.415
		c8.071-10.788,18.657-19.727,30.601-25.839c12.506-6.409,26.035-9.656,40.203-9.656c15.426,0,30.593,4.027,43.872,11.646
		c12.912,7.4,23.841,18.025,31.6,30.734l4.918,8.056l9.274,1.772c41.53,7.932,71.663,44.426,71.663,86.776
		c0,5.175-0.469,10.358-1.343,15.417l-2.404,13.692l11.554,7.729c13.442,8.97,21.467,23.958,21.467,40.086
		C426.338,302.513,404.731,324.121,378.173,324.121z"/>
	<path style="fill:#D770AD;" d="M330.086,276.065c0-5.559,0.967-10.905,2.701-15.878H310.6c-1.187,5.098-1.827,10.413-1.827,15.878
		c0,20.733,9.071,39.344,23.482,52.053l17.549-13.224C337.861,306.12,330.086,291.99,330.086,276.065z"/>
	<path style="fill:#D770AD;" d="M153.075,83.06v21.515c18.26,2.904,35.09,11.444,48.416,24.77c4.16,4.161,7.853,8.673,11.062,13.451
		h24.582C221.132,110.826,189.969,87.783,153.075,83.06z"/>
	<path style="fill:#D770AD;" d="M345.231,142.857c-0.906-18.259-6.262-35.339-15.02-50.179h-25.887
		c11.632,14.293,18.439,31.693,19.562,50.179H345.231z"/>
	<path style="fill:#D770AD;" d="M93.896,228.126H70.227c-4.419,10.711-6.854,22.443-6.854,34.746
		c0,23.872,9.165,45.605,24.169,61.874l13.974-16.331c-10.883-12.678-16.823-28.665-16.823-45.543
		C84.692,250.484,87.892,238.587,93.896,228.126z"/>
</g>
<g>
</g>
<g>
</g>
<g>
</g>
<g>
</g>
<g>
</g>
<g>
</g>
<g>
</g>
<g>
</g>
<g>
</g>
<g>
</g>
<g>
</g>
<g>
</g>
<g>
</g>
<g>
</g>
<g>
</g>
</svg>
