<?xml version="1.0" encoding="iso-8859-1"?>
<!-- Generator: Adobe Illustrator 19.0.0, SVG Export Plug-In . SVG Version: 6.00 Build 0)  -->
<svg version="1.1" id="Layer_1" xmlns="http://www.w3.org/2000/svg" xmlns:xlink="http://www.w3.org/1999/xlink" x="0px" y="0px"
	 viewBox="0 0 502.613 502.613" style="enable-background:new 0 0 502.613 502.613;" xml:space="preserve">
<g transform="translate(15 1)">
	<path style="fill:#AAB1BA;" d="M272.147,127c21.333,4.267,23.893,20.48,23.893,20.48c85.333,0,85.333,93.867,85.333,93.867v51.2
		c-17.067,0-34.133-17.067-34.133-17.067s-34.133-34.133-34.133-68.267c-17.067,29.013-119.467,34.133-153.6,34.133
		c0,17.067-8.533,51.2-17.067,68.267c-17.067,0-17.067-17.067-17.067-17.067c-17.067-17.067-17.067-34.133-17.067-34.133
		s0-95.573,85.333-127.147c0,0,19.627-7.68,47.787-6.827h0.853l-5.973,48.64l34.987-46.933L272.147,127z"/>
	<path style="fill:#FFD0A1;" d="M125.373,292.547c0,0,0,17.067,17.067,17.067c8.533-17.067,17.067-51.2,17.067-68.267
		c34.133,0,136.533-5.12,153.6-34.133c0,34.133,34.133,68.267,34.133,68.267s17.067,17.067,34.133,17.067
		c9.387,0,17.067,7.68,17.067,17.067v34.133c0,9.387-7.68,17.067-17.067,17.067c0,0-25.6,68.267-42.667,93.867
		c-10.24,16.213-25.6,42.667-85.333,42.667s-75.093-26.453-85.333-42.667c-17.067-25.6-42.667-93.867-42.667-93.867
		c-9.387,0-17.067-7.68-17.067-17.067v-34.133C108.307,300.227,115.987,292.547,125.373,292.547"/>
	<polygon style="fill:#7EE1E6;" points="313.107,70.68 271.293,126.147 236.307,173.08 242.28,124.44 244.84,104.813 
		193.64,104.813 270.44,2.413 261.907,70.68 	"/>
</g>
<path style="fill:#51565F;" d="M268.373,502.613c-59.733,0-76.8-26.453-87.893-42.667l-1.707-1.707
	c-15.36-23.04-37.547-79.36-41.813-92.16c-10.24-1.707-17.92-10.24-17.92-21.333v-34.133c0-11.947,9.387-21.333,21.333-21.333
	c2.56,0,4.267,1.707,4.267,4.267c0,1.707,0.853,11.093,10.24,12.8c7.68-17.067,15.36-47.787,15.36-64
	c0-2.56,1.707-4.267,4.267-4.267c52.907,0,135.68-8.533,150.187-32.427c0.853-1.707,2.56-2.56,5.12-1.707
	c1.707,0.853,3.413,2.56,3.413,4.267c0,31.573,32.427,64.853,33.28,64.853c1.707,1.707,1.707,4.267,0,5.973
	c-1.707,1.707-4.267,1.707-5.973,0c-1.707-1.707-29.013-29.867-34.133-61.44c-30.72,25.6-124.587,28.16-145.92,28.16
	c-0.853,18.773-9.387,49.493-17.067,65.707c-0.853,1.707-2.56,2.56-3.413,2.56c-13.653,0-18.773-9.387-20.48-16.213
	c-5.12,1.707-9.387,6.827-9.387,11.947v34.133c0,6.827,5.973,12.8,12.8,12.8c1.707,0,3.413,0.853,4.267,2.56
	c0,0.853,25.6,68.267,41.813,93.013l1.707,1.707c10.24,15.36,25.6,38.4,80.213,38.4s69.973-23.04,80.213-38.4l1.707-1.707
	c16.213-24.747,41.813-92.16,41.813-93.013c0.853-1.707,2.56-2.56,4.267-2.56c6.827,0,12.8-5.973,12.8-12.8V309.76
	c0-6.827-5.973-12.8-12.8-12.8c-2.56,0-4.267-1.707-4.267-4.267v-51.2c0-3.413-0.853-89.6-81.067-89.6
	c-2.56,0-4.267-1.707-4.267-4.267s1.707-4.267,4.267-4.267c88.747,0,89.6,97.28,89.6,98.133v46.933
	c9.387,1.707,17.067,10.24,17.067,21.333v34.133c0,11.093-7.68,19.627-17.92,21.333c-5.12,12.8-26.453,69.12-41.813,92.16
	l-1.707,1.707C345.173,476.16,328.107,502.613,268.373,502.613z M268.373,434.347c-18.773,0-28.16-9.387-29.013-9.387
	c-1.707-1.707-1.707-4.267,0-5.973c1.707-1.707,4.267-1.707,5.973,0l0,0c0,0,7.68,7.68,22.187,7.68
	c14.507,0,22.187-6.827,22.187-7.68c1.707-1.707,4.267-1.707,5.973,0s1.707,4.267,0,5.973
	C296.533,424.96,287.147,434.347,268.373,434.347z M311.04,340.48c-2.56,0-4.267-1.707-4.267-4.267v-4.267h-12.8
	c-2.56,0-4.267-1.707-4.267-4.267s1.707-4.267,4.267-4.267h34.133c2.56,0,4.267,1.707,4.267,4.267s-1.707,4.267-4.267,4.267h-12.8
	v4.267C315.307,338.773,313.6,340.48,311.04,340.48z M225.707,340.48c-2.56,0-4.267-1.707-4.267-4.267v-4.267h-12.8
	c-2.56,0-4.267-1.707-4.267-4.267s1.707-4.267,4.267-4.267h34.133c2.56,0,4.267,1.707,4.267,4.267s-1.707,4.267-4.267,4.267h-12.8
	v4.267C229.973,338.773,228.267,340.48,225.707,340.48z M123.307,263.68L123.307,263.68c-2.56,0-4.267-1.707-4.267-4.267
	c0-0.853,0.853-98.987,87.893-130.56c2.56-0.853,4.267,0,5.12,2.56c0.853,2.56,0,4.267-2.56,5.12
	C128.427,166.4,126.72,258.56,126.72,259.413C127.573,261.973,125.867,263.68,123.307,263.68z M251.307,178.347
	c-0.853,0-0.853,0-1.707,0c-1.707-0.853-2.56-2.56-2.56-4.267l7.68-63.147h-46.08c-1.707,0-3.413-0.853-3.413-2.56
	c-0.853-1.707-0.853-3.413,0-4.267l76.8-102.4C282.88,0,285.44,0,287.147,0c1.707,0.853,2.56,2.56,2.56,4.267l-7.68,63.147h46.08
	c1.707,0,3.413,0.853,3.413,2.56c0,1.707,0.853,3.413,0,4.267l-76.8,102.4C253.867,177.493,253.013,178.347,251.307,178.347z
	 M217.173,101.547h42.667c0.853,0,2.56,0.853,3.413,1.707c0.853,0.853,0.853,2.56,0.853,3.413l-6.827,52.053l62.293-82.773h-42.667
	c-0.853,0-2.56-0.853-3.413-1.707c-0.853-0.853-0.853-2.56-0.853-3.413l6.827-52.053L217.173,101.547z M396.373,127.147
	c-0.853,0-1.707,0-2.56-0.853c-1.707-1.707-2.56-4.267-0.853-5.973l29.867-44.373h-26.453c-1.707,0-3.413-0.853-3.413-2.56
	c-0.853-1.707-0.853-3.413,0-4.267l34.133-51.2c1.707-1.707,4.267-2.56,5.973-0.853c1.707,1.707,2.56,4.267,0.853,5.973
	l-29.867,44.373h26.453c1.707,0,3.413,0.853,3.413,2.56c0.853,1.707,0.853,3.413,0,4.267l-34.133,51.2
	C398.933,126.293,398.08,127.147,396.373,127.147z M148.907,93.013c-1.707,0-2.56-0.853-3.413-1.707l-22.187-36.693L109.653,74.24
	c-1.707,2.56-5.12,2.56-6.827,0l-34.133-51.2c-1.707-1.707-0.853-4.267,0.853-5.973c1.707-1.707,4.267-0.853,5.973,0.853L106.24,64
	l13.653-20.48c0.853-0.853,2.56-1.707,3.413-1.707c1.707,0,2.56,0.853,3.413,1.707l25.6,42.667c0.853,1.707,0.853,4.267-1.707,5.973
	C150.613,93.013,149.76,93.013,148.907,93.013z"/>
<g>
</g>
<g>
</g>
<g>
</g>
<g>
</g>
<g>
</g>
<g>
</g>
<g>
</g>
<g>
</g>
<g>
</g>
<g>
</g>
<g>
</g>
<g>
</g>
<g>
</g>
<g>
</g>
<g>
</g>
</svg>
