<svg xmlns="http://www.w3.org/2000/svg" enable-background="new 0 0 64 64" viewBox="0 0 64 64"><path fill="#32397c" d="M26.82 19.15c-.16.12-.35.17-.54.17-.31 0-.62-.14-.8-.42-.4-.58-1.12-.74-1.68-.36-.45.3-1.05.18-1.35-.27-.3-.44-.18-1.04.26-1.34 1.45-.98 3.37-.59 4.37.88C27.38 18.25 27.27 18.85 26.82 19.15zM24.75 26.06c-.09.47-.5.79-.95.79-.07 0-.13-.01-.19-.02-1.71-.33-2.79-1.96-2.47-3.71.1-.52.61-.87 1.14-.77.52.1.87.6.77 1.13-.13.7.27 1.32.93 1.45C24.51 25.03 24.85 25.54 24.75 26.06zM29.38 25.23c.08.53-.29 1.03-.82 1.1-.15.03-.31.04-.46.04-1.53 0-2.85-1.12-3.09-2.72-.08-.53.28-1.03.81-1.11.53-.08 1.03.29 1.11.82.1.7.67 1.15 1.35 1.05C28.81 24.32 29.31 24.7 29.38 25.23z"/><path fill="#32397c" d="M48.25,22.11c0-1.15-0.48-2.25-1.3-3.03c0.25-0.57,0.38-1.19,0.38-1.83c0-1.86-1.11-3.49-2.75-4.19
		c0.04-0.26,0.07-0.52,0.07-0.78c0-2.51-2.05-4.56-4.56-4.56c-0.32,0-0.63,0.04-0.93,0.1c-0.8-1.41-2.29-2.31-3.97-2.31
		c-1.32,0-2.53,0.58-3.37,1.53c-0.85-0.95-2.06-1.53-3.38-1.53c-1.68,0-3.17,0.9-3.96,2.31c-0.31-0.06-0.62-0.1-0.94-0.1
		c-2.51,0-4.55,2.05-4.55,4.56c0,0.26,0.02,0.52,0.07,0.78c-1.65,0.7-2.76,2.32-2.76,4.19c0,0.64,0.13,1.26,0.38,1.83
		c-0.82,0.78-1.3,1.88-1.3,3.03c0,1.54,0.84,2.92,2.12,3.65c-0.29,0.6-0.44,1.27-0.44,1.95c0,2.19,1.55,4.03,3.63,4.46
		c0.28,2.04,2.04,3.62,4.16,3.62c0.56,0,1.11-0.11,1.62-0.33c0.68,0.46,1.49,0.7,2.32,0.7c1.17,0,2.25-0.49,3.03-1.3
		c0.78,0.81,1.86,1.3,3.01,1.3c0.84,0,1.65-0.24,2.33-0.7c0.52,0.22,1.07,0.33,1.62,0.33c2.12,0,3.87-1.58,4.16-3.62
		c2.07-0.42,3.64-2.26,3.64-4.46c0-0.68-0.16-1.35-0.44-1.95C47.41,25.03,48.25,23.65,48.25,22.11z M30.85,14.39
		c-0.8-0.17-1.66-0.04-2.39,0.45c-0.44,0.29-0.56,0.9-0.26,1.34c0.29,0.45,0.9,0.57,1.34,0.27c0.41-0.28,0.91-0.25,1.31,0.01v3.49
		c-0.81-0.17-1.66-0.03-2.39,0.46c-0.44,0.3-0.56,0.9-0.26,1.35c0.3,0.44,0.9,0.56,1.35,0.26c0.4-0.28,0.9-0.26,1.3,0.01v10.86
		c-0.37,0.8-1.17,1.33-2.06,1.33c-0.21,0-0.42-0.04-0.63-0.1c0.62-0.9,0.76-2.08,0.23-3.13c-0.23-0.48-0.81-0.68-1.29-0.44
		c-0.48,0.24-0.68,0.82-0.44,1.3c0.29,0.6,0.04,1.3-0.59,1.61c-0.03,0.02-0.05,0.05-0.08,0.07c-0.35,0.2-0.74,0.32-1.14,0.32
		c-1.1,0-2.02-0.79-2.22-1.83c0.97-0.33,2.29-1,2.53-2.25c0.11-0.52-0.24-1.03-0.76-1.13c-0.52-0.11-1.04,0.24-1.14,0.76
		c-0.05,0.27-0.92,0.73-1.71,0.92C20.14,30.29,19,29.13,19,27.71c0-0.66,0.24-1.29,0.69-1.77c0.24-0.26,0.32-0.63,0.21-0.96
		c-0.11-0.33-0.4-0.58-0.74-0.65c-1.07-0.2-1.84-1.13-1.84-2.22c0-0.79,0.43-1.54,1.11-1.94c0.01-0.01,0.02-0.02,0.03-0.02
		c0.01-0.01,0.02-0.01,0.02-0.01c0.56-0.38,1.28-0.23,1.68,0.36c0.19,0.27,0.5,0.42,0.81,0.42c0.18,0,0.37-0.05,0.54-0.17
		c0.44-0.3,0.56-0.9,0.25-1.34c-0.78-1.16-2.13-1.63-3.37-1.31c-0.1-0.27-0.15-0.56-0.15-0.85c0-1.07,0.64-2,1.59-2.4
		c0.49,0.57,1.19,0.9,1.93,0.9c0.3,0,0.59-0.05,0.89-0.16c0.5-0.18,0.76-0.74,0.57-1.24c-0.18-0.5-0.74-0.76-1.24-0.58
		c-0.33,0.12-0.67-0.04-0.81-0.39c-0.01-0.02-0.02-0.05-0.03-0.07c-0.14-0.33-0.21-0.68-0.21-1.03c0-1.44,1.17-2.62,2.61-2.62
		c0.37,0,0.73,0.08,1.08,0.23c0.03,0.02,0.07,0.01,0.1,0.03c0.04,0.01,0.07,0.03,0.11,0.04c1.05,0.21,1.27,1.16,1.11,1.98
		c-0.1,0.53,0.25,1.03,0.78,1.13c0.06,0.01,0.12,0.02,0.18,0.02c0.45,0,0.86-0.33,0.95-0.79c0.3-1.62-0.31-3.05-1.51-3.79
		c0.49-0.65,1.26-1.06,2.1-1.06c1.06,0,2.01,0.65,2.41,1.63V14.39z M44.48,24.33c-0.35,0.07-0.63,0.32-0.74,0.65
		c-0.11,0.33-0.03,0.7,0.21,0.96c0.44,0.48,0.69,1.11,0.69,1.77c0,1.42-1.14,2.57-2.56,2.61c-0.79-0.19-1.66-0.65-1.71-0.92
		c-0.1-0.52-0.61-0.87-1.14-0.76c-0.52,0.1-0.86,0.61-0.76,1.13c0.24,1.25,1.56,1.91,2.53,2.25c-0.2,1.04-1.12,1.83-2.22,1.83
		c-0.4,0-0.79-0.12-1.14-0.33c-0.03-0.01-0.05-0.04-0.08-0.06c-0.63-0.31-0.88-1.01-0.58-1.61c0.23-0.48,0.04-1.06-0.44-1.3
		c-0.48-0.24-1.06-0.04-1.3,0.44c-0.52,1.05-0.39,2.23,0.23,3.13c-0.2,0.06-0.42,0.1-0.64,0.1c-0.88,0-1.68-0.54-2.04-1.35V22.03
		c0.4-0.27,0.89-0.29,1.3-0.01c0.44,0.3,1.04,0.18,1.34-0.26c0.31-0.45,0.19-1.05-0.25-1.35c-0.73-0.49-1.59-0.63-2.39-0.46v-3.49
		c0.4-0.26,0.89-0.29,1.3-0.01c0.45,0.3,1.05,0.18,1.35-0.27c0.3-0.44,0.18-1.05-0.27-1.34c-0.72-0.49-1.58-0.62-2.38-0.45V9.08
		c0.39-0.98,1.34-1.63,2.4-1.63c0.85,0,1.62,0.41,2.1,1.06c-1.19,0.73-1.81,2.17-1.51,3.79c0.09,0.46,0.5,0.79,0.96,0.79
		c0.06,0,0.12-0.01,0.18-0.02c0.52-0.1,0.87-0.6,0.77-1.13c-0.15-0.82,0.06-1.77,1.12-1.98c0.03-0.01,0.06-0.03,0.1-0.04
		c0.04-0.02,0.08-0.01,0.11-0.03c0.34-0.15,0.7-0.23,1.07-0.23c1.44,0,2.62,1.18,2.62,2.62c0,0.36-0.08,0.71-0.22,1.03
		c-0.01,0.01-0.01,0.03-0.01,0.04h-0.01c-0.13,0.37-0.48,0.54-0.82,0.42c-0.51-0.18-1.06,0.08-1.24,0.58
		c-0.19,0.5,0.07,1.06,0.58,1.24c0.29,0.11,0.59,0.16,0.88,0.16c0.74,0,1.44-0.33,1.93-0.9c0.95,0.4,1.59,1.33,1.59,2.4
		c0,0.29-0.05,0.58-0.14,0.85c-1.25-0.32-2.59,0.16-3.38,1.3c-0.3,0.45-0.19,1.05,0.25,1.35c0.17,0.12,0.36,0.17,0.55,0.17
		c0.31,0,0.61-0.15,0.8-0.42c0.4-0.58,1.12-0.74,1.68-0.36c0.01,0,0.01,0,0.02,0c0.01,0.01,0.02,0.02,0.03,0.03
		c0.68,0.4,1.11,1.15,1.11,1.94C46.31,23.2,45.54,24.13,44.48,24.33z"/><path fill="#32397c" d="M41.18 18.27c-.3.45-.9.57-1.34.27-.56-.38-1.28-.22-1.68.36-.19.28-.5.42-.81.42-.18 0-.38-.05-.54-.17-.44-.3-.56-.9-.26-1.34 1.01-1.47 2.92-1.86 4.37-.88C41.36 17.23 41.48 17.83 41.18 18.27zM40.02 26.83c-.06.01-.12.02-.18.02-.46 0-.86-.32-.95-.79-.11-.52.24-1.03.76-1.13.66-.13 1.06-.75.93-1.45-.09-.53.25-1.03.78-1.13.52-.09 1.03.25 1.13.77C42.82 24.87 41.73 26.5 40.02 26.83zM38.62 23.65c-.24 1.6-1.55 2.72-3.09 2.72-.15 0-.3-.01-.46-.04-.53-.07-.89-.57-.82-1.1.08-.53.57-.9 1.1-.82.67.1 1.25-.35 1.36-1.05.08-.53.57-.9 1.1-.82C38.34 22.62 38.7 23.12 38.62 23.65z"/><path fill="#32397c" d="M53.45,21.36C53.41,10.12,44.6,0.76,33.39,0.05c-5.99-0.39-11.7,1.66-16.06,5.76
		c-4.31,4.04-6.78,9.74-6.78,15.63c0,5.5,2.07,10.72,5.84,14.72c3.59,3.8,5.59,8.72,5.68,13.87c-0.94,0.48-1.6,1.46-1.6,2.6
		c0,0.75,0.29,1.42,0.74,1.93c-0.45,0.52-0.74,1.19-0.74,1.94c0,1.6,1.28,2.9,2.84,2.9h0.4c0.57,2.63,4,4.6,8.29,4.6
		s7.71-1.97,8.29-4.6h0.4c1.56,0,2.83-1.3,2.83-2.9c0-0.75-0.28-1.42-0.73-1.94c0.45-0.51,0.73-1.18,0.73-1.93
		c0-1.14-0.65-2.12-1.59-2.6c0.09-5.12,2.1-10.05,5.71-13.91C51.4,32.12,53.47,26.88,53.45,21.36z M32,62.06
		c-2.93,0-5.55-1.18-6.26-2.66h12.51C37.59,60.79,35.25,62.06,32,62.06z M40.69,57.46H23.31c-0.5,0-0.9-0.43-0.9-0.96
		c0-0.53,0.4-0.97,0.9-0.97h17.38c0.49,0,0.9,0.44,0.9,0.97C41.59,57.03,41.18,57.46,40.69,57.46z M40.69,53.6H23.31
		c-0.5,0-0.9-0.44-0.9-0.97c0-0.53,0.4-0.96,0.9-0.96h17.38c0.49,0,0.9,0.43,0.9,0.96C41.59,53.16,41.18,53.6,40.69,53.6z M40,49.73
		H24c-0.16-5.54-2.34-10.81-6.2-14.9c-3.42-3.64-5.31-8.39-5.31-13.39c0-5.44,2.19-10.49,6.16-14.22c3.97-3.72,9.16-5.59,14.62-5.24
		c10.19,0.65,18.2,9.17,18.24,19.39c0.02,5.02-1.86,9.79-5.28,13.42C42.35,38.94,40.17,44.22,40,49.73z"/><path fill="#f49292" d="M38.25,59.4c-0.66,1.39-3,2.66-6.25,2.66c-2.93,0-5.55-1.18-6.26-2.66H38.25z"/><path fill="#ea8888" d="M41.59,56.5c0,0.53-0.41,0.96-0.9,0.96H23.31c-0.5,0-0.9-0.43-0.9-0.96c0-0.53,0.4-0.97,0.9-0.97h17.38
		C41.18,55.53,41.59,55.97,41.59,56.5z"/><path fill="#f49292" d="M41.59,52.63c0,0.53-0.41,0.97-0.9,0.97H23.31c-0.5,0-0.9-0.44-0.9-0.97c0-0.53,0.4-0.96,0.9-0.96h17.38
		C41.18,51.67,41.59,52.1,41.59,52.63z"/><path fill="#ffdc7c" d="M33.27,1.98C27.81,1.63,22.62,3.5,18.65,7.22c-3.97,3.73-6.16,8.78-6.16,14.22c0,5,1.89,9.75,5.31,13.39
		c3.86,4.09,6.04,9.36,6.2,14.9h16c0.17-5.51,2.35-10.79,6.23-14.94c3.42-3.63,5.3-8.4,5.28-13.42
		C51.47,11.15,43.46,2.63,33.27,1.98z M46.58,27.71c0,2.2-1.57,4.04-3.64,4.46c-0.29,2.04-2.04,3.62-4.16,3.62
		c-0.55,0-1.1-0.11-1.62-0.33c-0.68,0.46-1.49,0.7-2.33,0.7c-1.15,0-2.23-0.49-3.01-1.3c-0.78,0.81-1.86,1.3-3.03,1.3
		c-0.83,0-1.64-0.24-2.32-0.7c-0.51,0.22-1.06,0.33-1.62,0.33c-2.12,0-3.88-1.58-4.16-3.62c-2.08-0.43-3.63-2.27-3.63-4.46
		c0-0.68,0.15-1.35,0.44-1.95c-1.28-0.73-2.12-2.11-2.12-3.65c0-1.15,0.48-2.25,1.3-3.03c-0.25-0.57-0.38-1.19-0.38-1.83
		c0-1.87,1.11-3.49,2.76-4.19c-0.05-0.26-0.07-0.52-0.07-0.78c0-2.51,2.04-4.56,4.55-4.56c0.32,0,0.63,0.04,0.94,0.1
		c0.79-1.41,2.28-2.31,3.96-2.31c1.32,0,2.53,0.58,3.38,1.53c0.84-0.95,2.05-1.53,3.37-1.53c1.68,0,3.17,0.9,3.97,2.31
		c0.3-0.06,0.61-0.1,0.93-0.1c2.51,0,4.56,2.05,4.56,4.56c0,0.26-0.03,0.52-0.07,0.78c1.64,0.7,2.75,2.33,2.75,4.19
		c0,0.64-0.13,1.26-0.38,1.83c0.82,0.78,1.3,1.88,1.3,3.03c0,1.54-0.84,2.92-2.11,3.65C46.42,26.36,46.58,27.03,46.58,27.71z"/><path fill="#f49292" d="M30.85 14.39V9.08c-.4-.98-1.35-1.63-2.41-1.63-.84 0-1.61.41-2.1 1.06 1.2.74 1.81 2.17 1.51 3.79-.09.46-.5.79-.95.79-.06 0-.12-.01-.18-.02-.53-.1-.88-.6-.78-1.13.16-.82-.06-1.77-1.11-1.98-.04-.01-.07-.03-.11-.04-.03-.02-.07-.01-.1-.03-.35-.15-.71-.23-1.08-.23-1.44 0-2.61 1.18-2.61 2.62 0 .35.07.7.21 1.03.01.02.02.05.03.07.14.35.48.51.81.39.5-.18 1.06.08 1.24.58.19.5-.07 1.06-.57 1.24-.3.11-.59.16-.89.16-.74 0-1.44-.33-1.93-.9-.95.4-1.59 1.33-1.59 2.4 0 .29.05.58.15.85 1.24-.32 2.59.15 3.37 1.31.31.44.19 1.04-.25 1.34-.17.12-.36.17-.54.17-.31 0-.62-.15-.81-.42-.4-.59-1.12-.74-1.68-.36 0 0-.01 0-.02.01-.01 0-.02.01-.03.02-.68.4-1.11 1.15-1.11 1.94 0 1.09.77 2.02 1.84 2.22.34.07.63.32.74.65.11.33.03.7-.21.96C19.24 26.42 19 27.05 19 27.71c0 1.42 1.14 2.58 2.55 2.61.79-.19 1.66-.65 1.71-.92.1-.52.62-.87 1.14-.76.52.1.87.61.76 1.13-.24 1.25-1.56 1.92-2.53 2.25.2 1.04 1.12 1.83 2.22 1.83.4 0 .79-.12 1.14-.32.03-.02.05-.05.08-.07.63-.31.88-1.01.59-1.61-.24-.48-.04-1.06.44-1.3.48-.24 1.06-.04 1.29.44.53 1.05.39 2.23-.23 3.13.21.06.42.1.63.1.89 0 1.69-.53 2.06-1.33V22.03c-.4-.27-.9-.29-1.3-.01-.45.3-1.05.18-1.35-.26-.3-.45-.18-1.05.26-1.35.73-.49 1.58-.63 2.39-.46v-3.49c-.4-.26-.9-.29-1.31-.01-.44.3-1.05.18-1.34-.27-.3-.44-.18-1.05.26-1.34C29.19 14.35 30.05 14.22 30.85 14.39zM22.71 16.93c1.45-.98 3.37-.59 4.37.88.3.44.19 1.04-.26 1.34-.16.12-.35.17-.54.17-.31 0-.62-.14-.8-.42-.4-.58-1.12-.74-1.68-.36-.45.3-1.05.18-1.35-.27C22.15 17.83 22.27 17.23 22.71 16.93zM23.8 26.85c-.07 0-.13-.01-.19-.02-1.71-.33-2.79-1.96-2.47-3.71.1-.52.61-.87 1.14-.77.52.1.87.6.77 1.13-.13.7.27 1.32.93 1.45.53.1.87.61.77 1.13C24.66 26.53 24.25 26.85 23.8 26.85zM28.28 24.41c.53-.09 1.03.29 1.1.82.08.53-.29 1.03-.82 1.1-.15.03-.31.04-.46.04-1.53 0-2.85-1.12-3.09-2.72-.08-.53.28-1.03.81-1.11.53-.08 1.03.29 1.11.82C27.03 24.06 27.6 24.51 28.28 24.41zM44.48 24.33c1.06-.2 1.83-1.13 1.83-2.22 0-.79-.43-1.54-1.11-1.94-.01-.01-.02-.02-.03-.03-.01 0-.01 0-.02 0-.56-.38-1.28-.22-1.68.36-.19.27-.49.42-.8.42-.19 0-.38-.05-.55-.17-.44-.3-.55-.9-.25-1.35.79-1.14 2.13-1.62 3.38-1.3.09-.27.14-.56.14-.85 0-1.07-.64-2-1.59-2.4-.49.57-1.19.9-1.93.9-.29 0-.59-.05-.88-.16-.51-.18-.77-.74-.58-1.24.18-.5.73-.76 1.24-.58.34.12.69-.05.82-.42h.01c0-.01 0-.03.01-.04.14-.32.22-.67.22-1.03 0-1.44-1.18-2.62-2.62-2.62-.37 0-.73.08-1.07.23-.03.02-.07.01-.11.03-.04.01-.07.03-.1.04-1.06.21-1.27 1.16-1.12 1.98.1.53-.25 1.03-.77 1.13-.06.01-.12.02-.18.02-.46 0-.87-.33-.96-.79-.3-1.62.32-3.06 1.51-3.79-.48-.65-1.25-1.06-2.1-1.06-1.06 0-2.01.65-2.4 1.63v5.31c.8-.17 1.66-.04 2.38.45.45.29.57.9.27 1.34-.3.45-.9.57-1.35.27-.41-.28-.9-.25-1.3.01v3.49c.8-.17 1.66-.03 2.39.46.44.3.56.9.25 1.35-.3.44-.9.56-1.34.26-.41-.28-.9-.26-1.3.01v10.84c.36.81 1.16 1.35 2.04 1.35.22 0 .44-.04.64-.1-.62-.9-.75-2.08-.23-3.13.24-.48.82-.68 1.3-.44.48.24.67.82.44 1.3-.3.6-.05 1.3.58 1.61.03.02.05.05.08.06.35.21.74.33 1.14.33 1.1 0 2.02-.79 2.22-1.83-.97-.34-2.29-1-2.53-2.25-.1-.52.24-1.03.76-1.13.53-.11 1.04.24 1.14.76.05.27.92.73 1.71.92 1.42-.04 2.56-1.19 2.56-2.61 0-.66-.25-1.29-.69-1.77-.24-.26-.32-.63-.21-.96C43.85 24.65 44.13 24.4 44.48 24.33zM35.53 26.37c-.15 0-.3-.01-.46-.04-.53-.07-.89-.57-.82-1.1.08-.53.57-.9 1.1-.82.67.1 1.25-.35 1.36-1.05.08-.53.57-.9 1.1-.82.53.08.89.58.81 1.11C38.38 25.25 37.07 26.37 35.53 26.37zM38.16 18.9c-.19.28-.5.42-.81.42-.18 0-.38-.05-.54-.17-.44-.3-.56-.9-.26-1.34 1.01-1.47 2.92-1.86 4.37-.88.44.3.56.9.26 1.34-.3.45-.9.57-1.34.27C39.28 18.16 38.56 18.32 38.16 18.9zM40.02 26.83c-.06.01-.12.02-.18.02-.46 0-.86-.32-.95-.79-.11-.52.24-1.03.76-1.13.66-.13 1.06-.75.93-1.45-.09-.53.25-1.03.78-1.13.52-.09 1.03.25 1.13.77C42.82 24.87 41.73 26.5 40.02 26.83z"/></svg>