<?xml version="1.0" encoding="iso-8859-1"?>
<!-- Generator: Adobe Illustrator 19.0.0, SVG Export Plug-In . SVG Version: 6.00 Build 0)  -->
<svg version="1.1" id="Layer_1" xmlns="http://www.w3.org/2000/svg" xmlns:xlink="http://www.w3.org/1999/xlink" x="0px" y="0px"
	 viewBox="0 0 472.141 472.141" style="enable-background:new 0 0 472.141 472.141;" xml:space="preserve">
<rect id="SVGCleanerId_0" x="220.071" y="136.141" style="fill:#FFC600;" width="32" height="152"/>
<path style="fill:#FFC600;" d="M313.671,47.341c-22.4-21.6-52-32-83.2-30.4c-57.6,2.4-104,50.4-106.4,108
	c-1.6,32,11.2,63.2,34.4,85.6c21.6,20.8,35.2,48.8,36.8,79.2h8v-153.6h-24v16h-16v-24c0-4,4-8,8-8h40h48h40c4,0,8,4,8,8v24h-16v-16
	h-24v152h8c2.4-29.6,15.2-58.4,36.8-79.2c24-20.8,36-49.6,36-80.8S336.071,68.141,313.671,47.341z"/>
<g>
	<rect id="SVGCleanerId_0_1_" x="220.071" y="136.141" style="fill:#FFC600;" width="32" height="152"/>
</g>
<path style="fill:#FF9900;" d="M313.671,47.341c-22.4-21.6-52-32-83.2-30.4c-57.6,2.4-104,50.4-106.4,108
	c-1.6,32,11.2,63.2,34.4,85.6c21.6,20.8,35.2,48.8,36.8,79.2h8h64h8c2.4-29.6,15.2-58.4,36.8-79.2c24-22.4,36-51.2,36-82.4
	S336.071,68.141,313.671,47.341z"/>
<path style="fill:#FFC600;" d="M332.071,128.141c0-26.4-10.4-51.2-29.6-69.6c-18.4-16.8-41.6-26.4-66.4-26.4c-1.6,0-3.2,0-4.8,0
	c-49.6,2.4-89.6,43.2-91.2,92c-0.8,27.2,9.6,54.4,29.6,73.6c20.8,20,35.2,45.6,40,74.4h52c4.8-28,19.2-54.4,40-74.4
	C321.671,179.341,332.071,154.541,332.071,128.141z"/>
<path style="fill:#D9CDC1;" d="M324.071,336.141l16-0.8c0-8.8,5.6-16,14.4-19.2c7.2-2.4,13.6-7.2,20-12c21.6,0.8,46.4,11.2,46.4,40
	c0,25.6-20,46.4-45.6,48c-8.8-18.4-28-32-50.4-32c-31.2,0-56,24.8-56,56h16c0-22.4,17.6-40,40-40s40,17.6,40,40s-17.6,40-40,40
	h-184.8c-22.4,0-40-17.6-40-40v-8c0-17.6,14.4-32,32-32v-16c-20,0-37.6,12.8-44.8,30.4c-20-5.6-35.2-24-35.2-46.4
	c0-28.8,24-39.2,45.6-40c11.2,9.6,26.4,16,42.4,16h16v-16h-16c-26.4,0-48-21.6-48-48c0-25.6,20-46.4,44.8-48
	c3.2,4,7.2,8.8,11.2,12.8c20.8,19.2,32,47.2,32,75.2c0,4,4,8,8,8h8v16c0,4,4,8,8,8h8v16c0,4,4,8,8,8h32c4,0,8-4,8-8v-16h8
	c4,0,8-4,8-8v-16h8c4,0,8-4,8-8c0-28,12-56,32-75.2c4-4,8-8,11.2-12c24.8,1.6,44,22.4,44,48c0,20-12.8,38.4-31.2,44.8
	C333.671,306.541,324.071,320.141,324.071,336.141z"/>
<path style="fill:#FFF8EF;" d="M140.071,448.141c-17.6,0-32-14.4-32-32v-8c0-13.6,10.4-24,24-24h8v-32h-8c-20.8,0-38.4,11.2-48.8,28
	c-13.6-6.4-23.2-20-23.2-36c0-25.6,24-31.2,35.2-32c12.8,10.4,28.8,16,44.8,16h24v-32h-24c-22.4,0-40-17.6-40-40
	c0-19.2,14.4-36,32.8-39.2c3.2,3.2,6.4,7.2,8.8,9.6c19.2,17.6,29.6,43.2,29.6,69.6c0,8.8,7.2,16,16,16v8c0,8.8,7.2,16,16,16v8
	c0,8.8,7.2,16,16,16h32c8.8,0,16-7.2,16-16v-8c8.8,0,16-7.2,16-16v-8c8.8,0,16-7.2,16-16c0-26.4,11.2-51.2,29.6-69.6
	c3.2-3.2,6.4-6.4,8.8-9.6c19.2,3.2,32.8,20,32.8,39.2c0,16.8-10.4,32-26.4,37.6c-16,6.4-28,23.2-28,42.4v8l32-1.6v-8
	c0-4.8,3.2-9.6,8.8-12c7.2-2.4,13.6-6.4,20-11.2c11.2,0.8,35.2,5.6,35.2,32c0,20-14.4,36-32.8,39.2c-12-18.4-32.8-30.4-55.2-30.4
	c-35.2,0-64,28.8-64,64v8h32v-8c0-17.6,14.4-32,32-32s32,14.4,32,32s-14.4,32-32,32H140.071z"/>
<path style="fill:#42210B;" d="M244.071,336.141v-8h-16v8H244.071z M252.071,288.141v-152h-32v152H252.071z M260.071,312.141v-8h-48
	v8h8h32H260.071z M348.071,128.141c0-31.2-12-60-34.4-80.8c-22.4-21.6-52-32-83.2-30.4c-57.6,2.4-104,50.4-106.4,107.2
	c-0.8,32,11.2,63.2,35.2,85.6c21.6,20.8,35.2,48.8,36.8,79.2h8v-152.8h-24v16h-16v-24c0-4,4-8,8-8h40h48h40c4,0,8,4,8,8v24h-16v-16
	h-24v152h8c2.4-29.6,15.2-58.4,36.8-79.2C336.071,188.141,348.071,159.341,348.071,128.141z M92.071,256.141c0,26.4,21.6,48,48,48
	h16v16h-16c-16,0-31.2-6.4-42.4-16c-21.6,0.8-45.6,11.2-45.6,40c0,22.4,15.2,40.8,35.2,46.4c7.2-17.6,24-30.4,44.8-30.4v16
	c-17.6,0-32,14.4-32,32v8c0,22.4,17.6,40,40,40h184c22.4,0,40-17.6,40-40s-17.6-40-40-40s-40,17.6-40,40h-16c0-31.2,24.8-56,56-56
	c22.4,0,41.6,12.8,50.4,32c25.6-1.6,45.6-22.4,45.6-48c0-28.8-24-39.2-46.4-40c-5.6,4.8-12,9.6-20,12c-8.8,3.2-14.4,10.4-14.4,19.2
	l-15.2,0.8c0-16,9.6-29.6,24.8-35.2c18.4-7.2,31.2-24.8,31.2-44.8c0-25.6-20-46.4-44-48c-3.2,4-7.2,8.8-11.2,12
	c-20.8,20-32,47.2-32,75.2c0,4-4,8-8,8h-8v16c0,4-4,8-8,8h-8v16c0,4-4,8-8,8h-32c-4,0-8-4-8-8v-16h-8c-4,0-8-4-8-8v-16h-8
	c-4,0-8-4-8-8c0-28-12-56-32-75.2c-4-4-8-8-11.2-12.8C112.071,210.541,92.071,230.541,92.071,256.141z M76.071,256.141
	c0-30.4,21.6-56,50.4-62.4c-12.8-20.8-19.2-45.6-18.4-70.4c2.4-65.6,56-120,121.6-123.2c35.2-1.6,68.8,10.4,94.4,35.2
	s40,57.6,40,92.8c0,23.2-6.4,45.6-18.4,65.6c28.8,6.4,50.4,32,50.4,62.4c0,12-3.2,23.2-9.6,33.6c30.4,4.8,49.6,25.6,49.6,54.4
	c0,32.8-24.8,60-56.8,63.2c0,3.2,0.8,5.6,0.8,8.8c0,31.2-24.8,56-56,56h-184c-31.2,0-56-24.8-56-56v-8c0-0.8,0-1.6,0-2.4
	c-27.2-7.2-48-32-48-61.6c0-28.8,19.2-49.6,49.6-54.4C79.271,279.341,76.071,268.141,76.071,256.141z"/>
<g>
</g>
<g>
</g>
<g>
</g>
<g>
</g>
<g>
</g>
<g>
</g>
<g>
</g>
<g>
</g>
<g>
</g>
<g>
</g>
<g>
</g>
<g>
</g>
<g>
</g>
<g>
</g>
<g>
</g>
</svg>
