<?xml version="1.0" encoding="iso-8859-1"?>
<!-- Generator: Adobe Illustrator 19.0.0, SVG Export Plug-In . SVG Version: 6.00 Build 0)  -->
<svg version="1.1" id="Layer_1" xmlns="http://www.w3.org/2000/svg" xmlns:xlink="http://www.w3.org/1999/xlink" x="0px" y="0px"
	 viewBox="0 0 508 508" style="enable-background:new 0 0 508 508;" xml:space="preserve">
<circle style="fill:#84DBFF;" cx="254" cy="254" r="254"/>
<path style="fill:#2B3B4E;" d="M254,504L254,504c-29.2,0-53.2-24-53.2-53.2V404h106.4v46.8C307.2,480,283.2,504,254,504z"/>
<path style="fill:#FFFFFF;" d="M205.6,387.2h97.2c2-37.6,16-73.2,38.8-103.2c13.6-18.4,22-40.8,22-65.6
	c0-61.6-51.2-111.6-113.6-109.2c-56.8,2-102.8,48.4-104.8,105.2c-0.8,26.4,7.6,50.8,22.4,70C190,314.4,203.2,350,205.6,387.2z"/>
<g>
	<path style="fill:#324A5E;" d="M312,409.2H196c-6.8,0-12-5.2-12-12l0,0c0-6.8,5.2-12,12-12h116.4c6.8,0,12,5.2,12,12l0,0
		C324,404,318.8,409.2,312,409.2z"/>
	<path style="fill:#324A5E;" d="M312,440.8H196c-6.8,0-12-5.2-12-12l0,0c0-6.8,5.2-12,12-12h116.4c6.8,0,12,5.2,12,12l0,0
		C324,435.2,318.8,440.8,312,440.8z"/>
	<path style="fill:#324A5E;" d="M312,472.4H196c-6.8,0-12-5.2-12-12l0,0c0-6.8,5.2-12,12-12h116.4c6.8,0,12,5.2,12,12l0,0
		C324,466.8,318.8,472.4,312,472.4z"/>
</g>
<path style="fill:#FF7058;" d="M284.4,249.6c0-16.8-13.6-30.4-30.4-30.4c-7.2,0-12.8-6-12.8-12.8c0-7.2,6-12.8,12.8-12.8
	c3.6,0,6.8,1.6,9.6,4c3.2,3.6,8.8,3.6,12.4,0.4c3.6-3.2,3.6-8.8,0.4-12.4c-3.6-4-8.4-6.8-13.6-8.4v-6c0-4.8-4-8.8-8.8-8.8
	s-8.8,4-8.8,8.8v6c-12.4,3.6-21.6,15.2-21.6,29.2c0,16.8,13.6,30.4,30.4,30.4c7.2,0,12.8,6,12.8,12.8c0,7.2-6,12.8-12.8,12.8
	c-3.6,0-6.8-1.6-9.6-4c-3.2-3.6-8.8-3.6-12.4-0.4c-3.6,3.2-3.6,8.8-0.4,12.4c3.6,4,8.4,6.8,13.6,8.4v6c0,4.8,4,8.8,8.8,8.8
	c4.8,0,8.8-4,8.8-8.8v-6C275.2,274.8,284.4,263.2,284.4,249.6z"/>
<g>
	<path style="fill:#FFFFFF;" d="M254,72.4L254,72.4c-5.6,0-10-4.4-10-10V14c0-5.6,4.4-10,10-10l0,0c5.6,0,10,4.4,10,10v48.4
		C264,68,259.6,72.4,254,72.4z"/>
	<path style="fill:#FFFFFF;" d="M399.6,217.6L399.6,217.6c0-5.6,4.4-10,10-10H458c5.6,0,10,4.4,10,10l0,0c0,5.6-4.4,10-10,10h-48.4
		C404,227.6,399.6,223.2,399.6,217.6z"/>
	<path style="fill:#FFFFFF;" d="M40.4,217.6L40.4,217.6c0-5.6,4.4-10,10-10h48.4c5.6,0,10,4.4,10,10l0,0c0,5.6-4.4,10-10,10H50.4
		C44.8,227.6,40.4,223.2,40.4,217.6z"/>
	<path style="fill:#FFFFFF;" d="M356.8,114.8L356.8,114.8c-4-4-4-10,0-14l34.4-34.4c4-4,10-4,14,0l0,0c4,4,4,10,0,14l-34.4,34.4
		C366.8,118.8,360.8,118.8,356.8,114.8z"/>
	<path style="fill:#FFFFFF;" d="M102.8,368.8L102.8,368.8c-4-4-4-10,0-14l34.4-34.4c4-4,10-4,14,0l0,0c4,4,4,10,0,14l-34.4,34.4
		C113.2,372.8,106.8,372.8,102.8,368.8z"/>
	<path style="fill:#FFFFFF;" d="M356.8,320.4L356.8,320.4c4-4,10-4,14,0l34.4,34.4c4,4,4,10,0,14l0,0c-4,4-10,4-14,0l-34.4-34.4
		C352.8,330.8,352.8,324.4,356.8,320.4z"/>
	<path style="fill:#FFFFFF;" d="M102.8,66.8L102.8,66.8c4-4,10-4,14,0l34.4,34.4c4,4,4,10,0,14l0,0c-4,4-10,4-14,0l-34.4-34.4
		C99.2,76.8,99.2,70.4,102.8,66.8z"/>
</g>
<g>
</g>
<g>
</g>
<g>
</g>
<g>
</g>
<g>
</g>
<g>
</g>
<g>
</g>
<g>
</g>
<g>
</g>
<g>
</g>
<g>
</g>
<g>
</g>
<g>
</g>
<g>
</g>
<g>
</g>
</svg>
