<?xml version="1.0" encoding="iso-8859-1"?>
<!-- Generator: Adobe Illustrator 19.0.0, SVG Export Plug-In . SVG Version: 6.00 Build 0)  -->
<svg version="1.1" id="Layer_1" xmlns="http://www.w3.org/2000/svg" xmlns:xlink="http://www.w3.org/1999/xlink" x="0px" y="0px"
	 viewBox="0 0 512.002 512.002" style="enable-background:new 0 0 512.002 512.002;" xml:space="preserve">
<circle style="fill:#273B7A;" cx="256" cy="256.001" r="256"/>
<path style="fill:#121149;" d="M381.374,125.453l-37.385,37.385l-82.98-82.227l0.528,13.383l-4.368-4.368l-0.881,50.845
	l53.243,53.243l-43.787,56.551l-95.453-94.896l-7.571,11.912l85.588,85.588l6.116,5.003l-14.369-14.369l-63.243,7.828
	l-17.923-16.787l-1.012,8.876l-55.874,1.929l155.605,155.807l-22.838,15.991l86.459,86.459
	c109.765-28.839,190.736-128.719,190.773-247.525L381.374,125.453z"/>
<path style="fill:#FFC61B;" d="M341.333,240.701c0-48.266-40.072-87.173-88.762-85.266c-43.625,1.708-79.357,36.823-81.77,80.413
	c-1.429,25.812,8.623,49.295,25.512,65.822c19.63,19.208,31.242,25.345,31.242,52.808v8.654h56.889v-8.056
	c0-27.167,10.549-33.773,30.263-52.464C331.105,287.067,341.333,265.082,341.333,240.701z"/>
  <g id="surface1">
<path style=" stroke:none;fill-rule:nonzero;fill:rgb(96.470588%,76.470588%,34.509804%);fill-opacity:1;" d="M 99.46875 42.503906 C 99.46875 37.835938 97.15625 33.519531 93.328125 30.875 C 93.753906 29.746094 93.976562 28.550781 93.976562 27.339844 C 93.976562 22.339844 90.285156 18.164062 85.441406 17.316406 C 85.195312 12.242188 81.15625 8.136719 76.058594 7.675781 C 74.535156 4.484375 71.222656 2.359375 67.574219 2.359375 C 66.636719 2.359375 65.703125 2.496094 64.8125 2.765625 C 63.425781 1.046875 61.296875 0 59.011719 0 C 54.933594 0 51.613281 3.265625 51.613281 7.273438 L 51.613281 33.292969 C 51.613281 36.460938 53.046875 39.445312 55.417969 41.484375 C 53.023438 43.636719 51.613281 46.707031 51.613281 49.988281 L 51.613281 66 C 51.613281 67.9375 52.101562 69.820312 53.035156 71.507812 C 52.101562 73.125 51.613281 74.945312 51.613281 76.835938 L 51.613281 89.285156 C 51.613281 94.902344 56.257812 99.46875 61.96875 99.46875 C 65.707031 99.46875 69.070312 97.519531 70.898438 94.449219 C 72.210938 95.019531 73.632812 95.320312 75.097656 95.320312 C 80.742188 95.320312 85.347656 90.855469 85.453125 85.328125 C 91.207031 83.664062 95.230469 78.484375 95.230469 72.445312 C 95.230469 70.339844 94.738281 68.304688 93.796875 66.449219 C 97.296875 64.242188 99.46875 60.421875 99.46875 56.234375 C 99.46875 53.90625 98.777344 51.613281 97.503906 49.664062 C 98.792969 47.492188 99.46875 45.042969 99.46875 42.503906 Z M 99.46875 42.503906 "/>
<path style=" stroke:none;fill-rule:nonzero;fill:rgb(98.823529%,83.137255%,38.431373%);fill-opacity:1;" d="M 92.070312 63.210938 C 89.539062 58.898438 84.472656 58.015625 81.824219 57.878906 C 81.304688 55.722656 80.089844 53.777344 78.308594 52.332031 C 77.515625 51.699219 76.363281 51.808594 75.71875 52.578125 C 75.070312 53.347656 75.183594 54.488281 75.964844 55.121094 C 77.535156 56.394531 78.4375 58.269531 78.4375 60.261719 C 78.4375 63.929688 75.40625 66.914062 71.671875 66.914062 C 67.945312 66.914062 64.910156 63.929688 64.910156 60.261719 C 64.910156 58.667969 65.496094 57.128906 66.550781 55.921875 C 66.574219 55.898438 66.578125 55.863281 66.601562 55.832031 C 67.109375 55.757812 67.617188 55.648438 68.113281 55.464844 C 71.980469 54.046875 73.953125 49.800781 72.515625 45.996094 C 72.15625 45.0625 71.097656 44.59375 70.144531 44.933594 C 69.191406 45.285156 68.710938 46.324219 69.0625 47.257812 C 69.796875 49.191406 68.792969 51.351562 66.828125 52.074219 C 64.859375 52.796875 62.664062 51.808594 61.929688 49.878906 C 61.578125 48.941406 60.515625 48.464844 59.566406 48.816406 C 58.613281 49.164062 58.128906 50.203125 58.488281 51.140625 C 59.226562 53.09375 60.742188 54.542969 62.550781 55.3125 C 61.707031 56.820312 61.234375 58.515625 61.234375 60.261719 C 61.234375 65.921875 65.914062 70.53125 71.671875 70.53125 C 76.996094 70.53125 81.390625 66.59375 82.027344 61.523438 C 84.292969 61.710938 88.273438 62.570312 89.476562 66.292969 C 89.53125 66.460938 89.613281 66.609375 89.707031 66.746094 C 89.71875 66.757812 89.71875 66.773438 89.726562 66.789062 C 90.921875 68.453125 91.550781 70.410156 91.550781 72.445312 C 91.550781 76.554688 88.992188 80.105469 85.242188 81.554688 C 84.65625 78.015625 82.289062 75.714844 82.167969 75.597656 C 81.429688 74.910156 80.269531 74.941406 79.5625 75.664062 C 78.867188 76.394531 78.894531 77.535156 79.632812 78.222656 C 79.65625 78.246094 82.027344 80.554688 81.691406 83.722656 C 81.683594 83.800781 81.710938 83.871094 81.714844 83.949219 C 81.71875 84.027344 81.691406 84.101562 81.703125 84.179688 C 81.75 84.492188 81.777344 84.808594 81.777344 85.136719 C 81.777344 88.753906 78.78125 91.699219 75.097656 91.699219 C 74.203125 91.699219 73.339844 91.511719 72.53125 91.175781 C 73.347656 89.03125 73.492188 85.800781 70.972656 82.351562 C 72.191406 80.359375 72.164062 77.765625 70.695312 75.765625 C 70.097656 74.957031 68.945312 74.773438 68.125 75.359375 C 67.304688 75.941406 67.117188 77.074219 67.710938 77.886719 C 68.492188 78.941406 68.246094 80.417969 67.171875 81.183594 C 66.101562 81.945312 64.597656 81.710938 63.816406 80.652344 C 63.21875 79.839844 62.070312 79.660156 61.25 80.246094 C 60.425781 80.832031 60.242188 81.964844 60.835938 82.769531 C 62.023438 84.386719 63.886719 85.242188 65.773438 85.242188 C 66.589844 85.242188 67.410156 85.070312 68.179688 84.738281 C 70.480469 88.113281 68.84375 90.476562 68.617188 90.777344 C 68.515625 90.90625 68.464844 91.050781 68.402344 91.195312 C 68.378906 91.242188 68.332031 91.277344 68.316406 91.328125 C 67.417969 94.03125 64.863281 95.855469 61.96875 95.855469 C 58.289062 95.855469 55.289062 92.90625 55.289062 89.285156 L 55.289062 76.835938 C 55.289062 75.949219 55.46875 75.09375 55.78125 74.285156 C 57.417969 75.347656 60.050781 76.5625 63.679688 76.5625 C 63.847656 76.5625 64.023438 76.558594 64.203125 76.550781 C 65.214844 76.519531 66.011719 75.6875 65.976562 74.6875 C 65.945312 73.710938 65.132812 72.9375 64.140625 72.9375 C 64.121094 72.9375 64.101562 72.9375 64.082031 72.9375 C 63.941406 72.945312 63.804688 72.945312 63.675781 72.945312 C 59.460938 72.945312 57.09375 70.828125 56.660156 70.402344 C 55.769531 69.097656 55.289062 67.582031 55.289062 66 L 55.289062 49.988281 C 55.289062 47.074219 56.914062 44.402344 59.523438 43.023438 C 59.566406 43 59.597656 42.964844 59.640625 42.9375 C 59.664062 42.921875 59.691406 42.921875 59.714844 42.902344 C 60.117188 42.625 63.753906 40.300781 67.597656 43.515625 C 67.9375 43.804688 68.363281 43.949219 68.785156 43.949219 C 69.304688 43.949219 69.820312 43.730469 70.1875 43.3125 C 70.84375 42.550781 70.75 41.40625 69.976562 40.761719 C 65.742188 37.214844 61.179688 38.066406 58.628906 39.339844 C 56.578125 38.019531 55.289062 35.738281 55.289062 33.292969 L 55.289062 7.273438 C 55.289062 5.257812 56.960938 3.617188 59.011719 3.617188 C 60.300781 3.617188 61.460938 4.304688 62.132812 5.367188 C 61.808594 6.839844 61.03125 8.878906 59.90625 9.535156 C 59.03125 10.046875 58.746094 11.15625 59.261719 12.015625 C 59.605469 12.585938 60.21875 12.902344 60.847656 12.902344 C 61.164062 12.902344 61.488281 12.820312 61.78125 12.648438 C 64.226562 11.222656 65.28125 8.03125 65.683594 6.332031 C 66.289062 6.121094 66.921875 5.976562 67.574219 5.976562 C 70.007812 5.976562 72.1875 7.539062 72.953125 9.800781 C 72.976562 10.800781 72.914062 14.804688 70.644531 17.296875 C 69.773438 18.257812 68.671875 18.878906 67.320312 19.1875 C 66.90625 17.300781 65.554688 15.660156 63.570312 14.976562 C 62.621094 14.648438 61.566406 15.144531 61.226562 16.085938 C 60.890625 17.03125 61.398438 18.0625 62.359375 18.390625 C 63.46875 18.773438 64.054688 19.96875 63.671875 21.054688 C 63.285156 22.148438 62.070312 22.726562 60.960938 22.34375 C 59.996094 22.015625 58.953125 22.515625 58.621094 23.457031 C 58.285156 24.402344 58.792969 25.433594 59.753906 25.761719 C 60.378906 25.976562 61.023438 26.078125 61.65625 26.078125 C 63.824219 26.078125 65.859375 24.867188 66.851562 22.898438 C 69.527344 22.574219 71.75 21.527344 73.410156 19.691406 C 75.753906 17.09375 76.414062 13.621094 76.578125 11.421875 C 79.550781 12.089844 81.777344 14.695312 81.777344 17.816406 C 81.777344 18.117188 81.75 18.425781 81.710938 18.722656 C 81.695312 18.855469 81.738281 18.984375 81.753906 19.109375 C 81.625 20.25 81.121094 22.210938 80.269531 22.75 C 79.414062 23.292969 79.167969 24.414062 79.71875 25.253906 C 80.074219 25.789062 80.664062 26.078125 81.269531 26.078125 C 81.609375 26.078125 81.957031 25.984375 82.265625 25.789062 C 83.996094 24.6875 84.792969 22.546875 85.160156 20.96875 C 88.097656 21.65625 90.296875 24.242188 90.296875 27.339844 C 90.296875 27.890625 90.21875 28.441406 90.082031 28.96875 C 86.917969 27.550781 81.777344 26.808594 76.445312 30.261719 C 74.890625 29.261719 73.070312 28.761719 71.191406 28.878906 C 68.890625 29.03125 66.789062 30.050781 65.269531 31.757812 C 64.605469 32.507812 64.683594 33.648438 65.445312 34.308594 C 66.207031 34.964844 67.367188 34.890625 68.039062 34.136719 C 68.910156 33.160156 70.113281 32.578125 71.433594 32.492188 C 72.746094 32.410156 74.027344 32.828125 75.023438 33.683594 C 77.074219 35.453125 77.285156 38.53125 75.484375 40.550781 C 74.816406 41.304688 74.894531 42.445312 75.65625 43.105469 C 76.007812 43.40625 76.4375 43.550781 76.871094 43.550781 C 77.382812 43.550781 77.890625 43.34375 78.253906 42.933594 C 80.804688 40.070312 81 35.996094 79.074219 32.914062 C 84.957031 29.523438 89.640625 32.84375 89.859375 33.003906 C 89.902344 33.035156 89.953125 33.042969 89.996094 33.070312 C 90.035156 33.09375 90.0625 33.136719 90.101562 33.160156 C 93.609375 35.011719 95.792969 38.589844 95.792969 42.503906 C 95.792969 43.921875 95.476562 45.289062 94.933594 46.578125 C 93.550781 45.449219 92.085938 45.019531 90.964844 44.875 C 90.285156 42.003906 88.144531 39.625 85.210938 38.703125 C 84.25 38.402344 83.210938 38.925781 82.898438 39.871094 C 82.585938 40.824219 83.121094 41.84375 84.089844 42.148438 C 86.105469 42.78125 87.484375 44.605469 87.527344 46.683594 C 87.5625 48.429688 86.632812 50.074219 85.105469 50.972656 C 84.230469 51.480469 83.941406 52.589844 84.460938 53.449219 C 84.804688 54.015625 85.414062 54.332031 86.046875 54.332031 C 86.363281 54.332031 86.6875 54.25 86.980469 54.078125 C 89.074219 52.859375 90.5 50.835938 91.003906 48.554688 C 91.824219 48.769531 92.863281 49.304688 93.707031 50.664062 C 93.734375 50.710938 93.773438 50.742188 93.804688 50.785156 C 93.824219 50.808594 93.832031 50.839844 93.847656 50.863281 C 95.117188 52.398438 95.789062 54.253906 95.789062 56.234375 C 95.792969 59.0625 94.363281 61.636719 92.070312 63.210938 Z M 92.070312 63.210938 "/>
<path style=" stroke:none;fill-rule:nonzero;fill:rgb(96.470588%,76.470588%,34.509804%);fill-opacity:1;" d="M 1.964844 49.664062 C 0.691406 51.613281 0 53.90625 0 56.234375 C 0 60.421875 2.171875 64.242188 5.671875 66.449219 C 4.730469 68.304688 4.238281 70.339844 4.238281 72.445312 C 4.238281 78.484375 8.261719 83.664062 14.015625 85.328125 C 14.121094 90.855469 18.726562 95.320312 24.371094 95.320312 C 25.835938 95.320312 27.257812 95.019531 28.570312 94.445312 C 30.402344 97.519531 33.761719 99.46875 37.5 99.46875 C 43.210938 99.46875 47.855469 94.902344 47.855469 89.285156 L 47.855469 76.835938 C 47.855469 74.945312 47.367188 73.125 46.433594 71.507812 C 47.367188 69.820312 47.855469 67.9375 47.855469 66 L 47.855469 49.988281 C 47.855469 46.707031 46.445312 43.636719 44.050781 41.480469 C 46.421875 39.445312 47.855469 36.460938 47.855469 33.292969 L 47.855469 7.273438 C 47.855469 3.265625 44.539062 0 40.453125 0 C 38.171875 0 36.042969 1.046875 34.65625 2.765625 C 33.765625 2.496094 32.835938 2.359375 31.898438 2.359375 C 28.246094 2.359375 24.929688 4.488281 23.410156 7.671875 C 18.3125 8.136719 14.273438 12.242188 14.027344 17.316406 C 9.183594 18.164062 5.492188 22.339844 5.492188 27.339844 C 5.492188 28.550781 5.714844 29.746094 6.140625 30.875 C 2.3125 33.519531 0 37.835938 0 42.503906 C 0 45.042969 0.675781 47.492188 1.964844 49.664062 Z M 1.964844 49.664062 "/>
<path style=" stroke:none;fill-rule:nonzero;fill:rgb(98.823529%,83.137255%,38.431373%);fill-opacity:1;" d="M 3.675781 56.234375 C 3.675781 54.253906 4.351562 52.398438 5.617188 50.863281 C 5.636719 50.839844 5.644531 50.808594 5.664062 50.785156 C 5.695312 50.742188 5.734375 50.710938 5.761719 50.664062 C 6.605469 49.308594 7.644531 48.769531 8.46875 48.554688 C 8.96875 50.835938 10.398438 52.859375 12.484375 54.078125 C 12.78125 54.25 13.105469 54.332031 13.421875 54.332031 C 14.050781 54.332031 14.664062 54.015625 15.007812 53.449219 C 15.527344 52.589844 15.238281 51.480469 14.367188 50.972656 C 12.835938 50.078125 11.90625 48.433594 11.941406 46.683594 C 11.984375 44.605469 13.367188 42.78125 15.378906 42.148438 C 16.34375 41.84375 16.878906 40.824219 16.566406 39.875 C 16.257812 38.925781 15.214844 38.40625 14.257812 38.703125 C 11.324219 39.625 9.179688 42.003906 8.503906 44.875 C 7.382812 45.019531 5.917969 45.449219 4.539062 46.578125 C 3.992188 45.289062 3.675781 43.921875 3.675781 42.503906 C 3.675781 38.59375 5.859375 35.011719 9.367188 33.160156 C 9.410156 33.136719 9.4375 33.09375 9.476562 33.070312 C 9.519531 33.042969 9.566406 33.035156 9.609375 33.003906 C 9.828125 32.84375 14.511719 29.523438 20.394531 32.914062 C 18.46875 35.996094 18.667969 40.070312 21.214844 42.933594 C 21.582031 43.34375 22.085938 43.550781 22.597656 43.550781 C 23.03125 43.550781 23.460938 43.40625 23.8125 43.105469 C 24.574219 42.445312 24.652344 41.304688 23.984375 40.550781 C 22.1875 38.53125 22.394531 35.453125 24.445312 33.683594 C 25.441406 32.828125 26.722656 32.410156 28.035156 32.492188 C 29.355469 32.578125 30.558594 33.160156 31.429688 34.136719 C 32.101562 34.890625 33.261719 34.964844 34.023438 34.308594 C 34.789062 33.648438 34.867188 32.507812 34.199219 31.757812 C 32.679688 30.050781 30.578125 29.03125 28.277344 28.878906 C 26.398438 28.761719 24.582031 29.261719 23.023438 30.261719 C 17.691406 26.808594 12.550781 27.550781 9.390625 28.96875 C 9.25 28.441406 9.171875 27.890625 9.171875 27.339844 C 9.171875 24.242188 11.371094 21.65625 14.308594 20.96875 C 14.675781 22.546875 15.472656 24.6875 17.203125 25.789062 C 17.511719 25.984375 17.859375 26.078125 18.203125 26.078125 C 18.804688 26.078125 19.394531 25.789062 19.75 25.253906 C 20.300781 24.414062 20.054688 23.292969 19.203125 22.75 C 18.347656 22.210938 17.84375 20.25 17.714844 19.109375 C 17.730469 18.984375 17.777344 18.855469 17.761719 18.722656 C 17.71875 18.425781 17.691406 18.121094 17.691406 17.816406 C 17.691406 14.695312 19.917969 12.089844 22.886719 11.421875 C 23.054688 13.621094 23.714844 17.09375 26.0625 19.691406 C 27.71875 21.527344 29.941406 22.574219 32.617188 22.898438 C 33.605469 24.867188 35.640625 26.078125 37.8125 26.078125 C 38.445312 26.078125 39.089844 25.976562 39.71875 25.761719 C 40.675781 25.433594 41.183594 24.402344 40.847656 23.457031 C 40.515625 22.515625 39.46875 22.015625 38.507812 22.34375 C 37.398438 22.726562 36.183594 22.148438 35.796875 21.054688 C 35.414062 19.96875 36 18.773438 37.109375 18.390625 C 38.070312 18.0625 38.574219 17.03125 38.242188 16.085938 C 37.90625 15.144531 36.851562 14.648438 35.898438 14.976562 C 33.914062 15.660156 32.5625 17.300781 32.148438 19.1875 C 30.796875 18.878906 29.695312 18.257812 28.820312 17.296875 C 26.558594 14.804688 26.492188 10.800781 26.515625 9.800781 C 27.28125 7.539062 29.464844 5.976562 31.898438 5.976562 C 32.546875 5.976562 33.179688 6.121094 33.785156 6.332031 C 34.1875 8.03125 35.242188 11.222656 37.6875 12.648438 C 37.980469 12.820312 38.304688 12.902344 38.621094 12.902344 C 39.253906 12.902344 39.863281 12.585938 40.207031 12.015625 C 40.722656 11.15625 40.4375 10.046875 39.5625 9.535156 C 38.433594 8.878906 37.660156 6.839844 37.335938 5.367188 C 38.007812 4.304688 39.167969 3.617188 40.453125 3.617188 C 42.507812 3.617188 44.179688 5.257812 44.179688 7.273438 L 44.179688 33.292969 C 44.179688 35.738281 42.890625 38.019531 40.839844 39.339844 C 38.292969 38.066406 33.726562 37.214844 29.492188 40.761719 C 28.71875 41.40625 28.625 42.550781 29.28125 43.3125 C 29.648438 43.730469 30.164062 43.949219 30.679688 43.949219 C 31.105469 43.949219 31.53125 43.804688 31.875 43.515625 C 35.714844 40.300781 39.351562 42.625 39.753906 42.902344 C 39.777344 42.917969 39.804688 42.921875 39.828125 42.9375 C 39.871094 42.964844 39.902344 42.996094 39.945312 43.019531 C 42.554688 44.402344 44.179688 47.074219 44.179688 49.988281 L 44.179688 66 C 44.179688 67.582031 43.699219 69.097656 42.808594 70.402344 C 42.371094 70.828125 40.007812 72.945312 35.792969 72.945312 C 35.660156 72.945312 35.527344 72.945312 35.386719 72.9375 C 35.371094 72.9375 35.347656 72.9375 35.328125 72.9375 C 34.339844 72.9375 33.523438 73.710938 33.492188 74.6875 C 33.457031 75.6875 34.253906 76.519531 35.269531 76.550781 C 35.445312 76.558594 35.617188 76.5625 35.789062 76.5625 C 39.417969 76.5625 42.050781 75.347656 43.6875 74.285156 C 44 75.09375 44.179688 75.949219 44.179688 76.835938 L 44.179688 89.285156 C 44.179688 92.90625 41.183594 95.855469 37.5 95.855469 C 34.601562 95.855469 32.050781 94.03125 31.152344 91.328125 C 31.136719 91.277344 31.089844 91.242188 31.066406 91.191406 C 31.003906 91.050781 30.953125 90.902344 30.851562 90.777344 C 30.625 90.476562 28.992188 88.113281 31.289062 84.738281 C 32.058594 85.070312 32.878906 85.242188 33.695312 85.242188 C 35.578125 85.242188 37.445312 84.386719 38.632812 82.769531 C 39.230469 81.964844 39.042969 80.832031 38.222656 80.246094 C 37.398438 79.660156 36.25 79.839844 35.648438 80.652344 C 34.875 81.710938 33.367188 81.945312 32.296875 81.183594 C 31.222656 80.417969 30.976562 78.9375 31.753906 77.882812 C 32.351562 77.074219 32.164062 75.941406 31.34375 75.359375 C 30.523438 74.773438 29.371094 74.957031 28.773438 75.765625 C 27.304688 77.765625 27.277344 80.359375 28.496094 82.351562 C 25.976562 85.800781 26.121094 89.03125 26.9375 91.175781 C 26.128906 91.507812 25.265625 91.699219 24.371094 91.699219 C 20.691406 91.699219 17.691406 88.753906 17.691406 85.136719 C 17.691406 84.808594 17.71875 84.492188 17.765625 84.179688 C 17.777344 84.101562 17.753906 84.027344 17.753906 83.949219 C 17.757812 83.871094 17.785156 83.800781 17.777344 83.722656 C 17.441406 80.554688 19.808594 78.246094 19.835938 78.222656 C 20.570312 77.535156 20.601562 76.390625 19.902344 75.664062 C 19.199219 74.941406 18.039062 74.910156 17.300781 75.597656 C 17.179688 75.710938 14.816406 78.015625 14.222656 81.554688 C 10.476562 80.105469 7.917969 76.554688 7.917969 72.445312 C 7.917969 70.40625 8.542969 68.453125 9.742188 66.789062 C 9.75 66.773438 9.75 66.757812 9.761719 66.746094 C 9.855469 66.609375 9.941406 66.460938 9.996094 66.292969 C 11.195312 62.566406 15.171875 61.710938 17.4375 61.523438 C 18.074219 66.589844 22.472656 70.53125 27.792969 70.53125 C 33.550781 70.53125 38.238281 65.921875 38.238281 60.261719 C 38.238281 58.515625 37.761719 56.820312 36.917969 55.3125 C 38.726562 54.542969 40.242188 53.09375 40.980469 51.140625 C 41.339844 50.203125 40.855469 49.164062 39.902344 48.816406 C 38.953125 48.464844 37.890625 48.941406 37.535156 49.875 C 36.804688 51.808594 34.609375 52.792969 32.640625 52.074219 C 30.675781 51.351562 29.671875 49.191406 30.402344 47.257812 C 30.757812 46.324219 30.277344 45.285156 29.324219 44.933594 C 28.371094 44.59375 27.3125 45.0625 26.953125 45.996094 C 25.515625 49.800781 27.488281 54.046875 31.355469 55.464844 C 31.851562 55.644531 32.363281 55.757812 32.867188 55.832031 C 32.890625 55.863281 32.898438 55.894531 32.921875 55.921875 C 33.972656 57.128906 34.558594 58.667969 34.558594 60.261719 C 34.558594 63.929688 31.523438 66.914062 27.792969 66.914062 C 24.0625 66.914062 21.03125 63.929688 21.03125 60.261719 C 21.03125 58.265625 21.929688 56.394531 23.503906 55.121094 C 24.285156 54.488281 24.398438 53.347656 23.75 52.578125 C 23.109375 51.808594 21.945312 51.695312 21.164062 52.332031 C 19.378906 53.777344 18.164062 55.722656 17.644531 57.878906 C 14.996094 58.015625 9.929688 58.898438 7.398438 63.210938 C 5.105469 61.636719 3.675781 59.0625 3.675781 56.234375 Z M 3.675781 56.234375 "/>
</g>
<path style="fill:#EAA22F;" d="M256.288,155.385v207.746h28.157v-8.054c0-27.167,10.549-33.773,30.263-52.464
	c16.398-15.546,26.626-37.531,26.626-61.912C341.333,193.67,303.282,155.544,256.288,155.385z"/>
<path id="SVGCleanerId_0" style="fill:#FFEDB5;" d="M256,140.499c-3.808,0-6.896-3.088-6.896-6.896V85.334
	c0-3.808,3.088-6.896,6.896-6.896c3.808,0,6.896,3.088,6.896,6.896v48.269C262.896,137.412,259.808,140.499,256,140.499z"/>
<g>
	<path style="fill:#FEE187;" d="M342.369,171.355c-1.764,0-3.531-0.674-4.875-2.02c-2.694-2.693-2.694-7.059,0-9.75l34.132-34.132
		c2.691-2.694,7.061-2.694,9.75,0c2.694,2.693,2.694,7.059,0,9.75l-34.132,34.132C345.898,170.683,344.133,171.355,342.369,171.355z
		"/>
	<path style="fill:#FEE187;" d="M405.294,247.209L405.294,247.209l-48.281-0.012c-3.808-0.002-6.896-3.089-6.894-6.897
		c0.002-3.808,3.087-6.894,6.896-6.894h0.002l48.28,0.012c3.808,0.002,6.896,3.089,6.894,6.897S409.1,247.209,405.294,247.209z"/>
</g>

<g>
	<path id="SVGCleanerId_0_1_" style="fill:#FFEDB5;" d="M256,140.499c-3.808,0-6.896-3.088-6.896-6.896V85.334
		c0-3.808,3.088-6.896,6.896-6.896c3.808,0,6.896,3.088,6.896,6.896v48.269C262.896,137.412,259.808,140.499,256,140.499z"/>
</g>
<path style="fill:#FEE187;" d="M256.288,78.468v62.002c3.672-0.153,6.608-3.156,6.608-6.866V85.334
	C262.896,81.624,259.96,78.621,256.288,78.468z"/>
<g>
	<path style="fill:#FFEDB5;" d="M169.631,171.355c-1.764,0-3.531-0.674-4.875-2.02l-34.132-34.13c-2.694-2.693-2.694-7.059,0-9.75
		c2.691-2.694,7.061-2.694,9.75,0l34.132,34.132c2.694,2.693,2.694,7.059,0,9.75C173.161,170.683,171.396,171.355,169.631,171.355z"
		/>
	<path style="fill:#FFEDB5;" d="M106.706,247.209c-3.808,0-6.894-3.086-6.896-6.894c-0.002-3.808,3.086-6.896,6.894-6.897
		l48.28-0.012h0.002c3.808,0,6.894,3.086,6.896,6.894s-3.086,6.896-6.894,6.897L106.706,247.209L106.706,247.209z"/>
</g>


<!-- <path style="fill:#E09112;" d="M256,420.634c-2.92,0-5.423-2.093-5.939-4.968l-28.444-158.599c-0.315-1.76,0.165-3.567,1.312-4.937
	c1.146-1.37,2.841-2.162,4.627-2.162h56.889c1.786,0,3.482,0.791,4.629,2.162s1.626,3.179,1.312,4.937l-28.444,158.599
	C261.422,418.541,258.92,420.634,256,420.634z M234.768,262.035L256,380.422l21.232-118.388H234.768z"/> -->
<!-- <path style="fill:#FF5419;" d="M289.071,252.129c-1.146-1.37-2.841-2.162-4.627-2.162h-28.157v12.067h20.944l-20.944,116.783v41.791
	c2.794-0.134,5.153-2.164,5.651-4.942l28.444-158.599C290.699,255.308,290.22,253.499,289.071,252.129z"/> -->
<path style="fill:#FFFFFF;" d="M256,426.668L256,426.668c-15.71,0-28.444-12.734-28.444-28.444v-41.77h56.889v41.77
	C284.444,413.933,271.71,426.668,256,426.668z"/>
<path style="fill:#D0D1D3;" d="M256.288,356.453v70.201c15.575-0.157,28.157-12.819,28.157-28.431v-41.77H256.288z"/>
<g>
</g>
<g>
</g>
<g>
</g>
<g>
</g>
<g>
</g>
<g>
</g>
<g>
</g>
<g>
</g>
<g>
</g>
<g>
</g>
<g>
</g>
<g>
</g>
<g>
</g>
<g>
</g>
<g>
</g>
</svg>
