<?xml version="1.0" encoding="iso-8859-1"?>
<!-- Generator: Adobe Illustrator 19.0.0, SVG Export Plug-In . SVG Version: 6.00 Build 0)  -->
<svg version="1.1" id="Layer_1" xmlns="http://www.w3.org/2000/svg" xmlns:xlink="http://www.w3.org/1999/xlink" x="0px" y="0px"
	 viewBox="0 0 512 512" style="enable-background:new 0 0 512 512;" xml:space="preserve">
<path style="fill:#FFD15C;" d="M318.467,405.497H193.545c-9.109,0-16.494-7.385-16.494-16.494v-35.297
	c-38.751-26.147-62.456-70.253-62.456-117.323c0-77.971,63.434-141.405,141.405-141.405c77.977,0,141.416,63.434,141.416,141.405
	c0,47.072-23.706,91.177-62.457,117.323v35.297C334.96,398.114,327.576,405.497,318.467,405.497z"/>
<path style="fill:#F8B64C;" d="M256,94.978v310.52h62.467c9.109,0,16.494-7.385,16.494-16.494v-35.297
	c38.751-26.147,62.457-70.253,62.457-117.323C397.417,158.412,333.977,94.978,256,94.978z"/>
<path style="fill:#CDD6E0;" d="M256.003,512c-34.881,0-63.257-28.377-63.257-63.257c0-9.109,7.385-16.494,16.494-16.494h93.528
	c9.109,0,16.494,7.385,16.494,16.494C319.262,483.623,290.884,512,256.003,512z"/>
<path style="fill:#AEB6BD;" d="M302.768,432.249h-46.767V512c0.001,0,0.002,0,0.003,0c34.881,0,63.257-28.377,63.257-63.257
	C319.262,439.634,311.877,432.249,302.768,432.249z"/>
<path style="fill:#FF7058;" d="M234.778,310.446c-7.322-5.419-8.865-15.748-3.445-23.069l25.529-34.493h-34.444
	c-13.532,0-21.294-15.447-13.258-26.306l44.999-60.798c5.421-7.321,15.748-8.864,23.069-3.445
	c7.321,5.419,8.865,15.747,3.445,23.069l-25.529,34.493h34.444c13.532,0,21.294,15.447,13.258,26.306l-45,60.798
	C252.43,314.322,242.1,315.867,234.778,310.446z"/>
<path id="SVGCleanerId_0" style="fill:#FFD15C;" d="M256,69.42c-9.109,0-16.494-7.385-16.494-16.494V16.494
	C239.506,7.385,246.891,0,256,0c9.109,0,16.494,7.385,16.494,16.494v36.433C272.494,62.036,265.11,69.42,256,69.42z"/>
<g>
	<path style="fill:#FFD15C;" d="M72.519,252.909H36.085c-9.109,0-16.494-7.385-16.494-16.494c0-9.109,7.385-16.494,16.494-16.494
		h36.433c9.109,0,16.494,7.385,16.494,16.494C89.012,245.524,81.627,252.909,72.519,252.909z"/>
	<path style="fill:#FFD15C;" d="M114.595,118.333L88.833,92.571c-6.441-6.441-6.441-16.884,0-23.325
		c6.44-6.441,16.884-6.441,23.325,0l25.762,25.762c6.441,6.441,6.441,16.884,0,23.325
		C131.481,124.774,121.036,124.775,114.595,118.333z"/>
</g>
<g>
	<path id="SVGCleanerId_0_1_" style="fill:#FFD15C;" d="M256,69.42c-9.109,0-16.494-7.385-16.494-16.494V16.494
		C239.506,7.385,246.891,0,256,0c9.109,0,16.494,7.385,16.494,16.494v36.433C272.494,62.036,265.11,69.42,256,69.42z"/>
</g>
<path style="fill:#40596B;" d="M318.467,465.237H193.545c-9.109,0-16.494-7.385-16.494-16.494V372.51H334.96v76.233
	C334.96,457.854,327.576,465.237,318.467,465.237z"/>
<path style="fill:#364C5C;" d="M256,372.51v92.727h62.467c9.109,0,16.494-7.385,16.494-16.494V372.51L256,372.51L256,372.51z"/>
<g>
	<path style="fill:#F1543F;" d="M280.674,185.406c5.42-7.322,3.876-17.65-3.445-23.069c-6.564-4.859-15.535-4.106-21.229,1.377
		v55.03L280.674,185.406z"/>
	<path style="fill:#F1543F;" d="M289.59,219.897H256v32.987h0.862L256,254.049v55.028c0.659-0.633,1.284-1.316,1.847-2.075
		l45-60.798C310.884,235.345,303.122,219.897,289.59,219.897z"/>
</g>
<path id="SVGCleanerId_1" style="fill:#F8B64C;" d="M256,0v69.42c9.109,0,16.494-7.385,16.494-16.494V16.494
	C272.494,7.385,265.11,0,256,0z"/>
<g>
	<path id="SVGCleanerId_1_1_" style="fill:#F8B64C;" d="M256,0v69.42c9.109,0,16.494-7.385,16.494-16.494V16.494
		C272.494,7.385,265.11,0,256,0z"/>
</g>
<g>
	<path style="fill:#F8B64C;" d="M475.915,252.909h-36.433c-9.109,0-16.494-7.385-16.494-16.494c0-9.109,7.385-16.494,16.494-16.494
		h36.433c9.109,0,16.494,7.385,16.494,16.494C492.408,245.524,485.025,252.909,475.915,252.909z"/>
	<path style="fill:#F8B64C;" d="M374.08,118.333c-6.441-6.441-6.441-16.884,0-23.325l25.763-25.762c6.441-6.44,16.885-6.44,23.325,0
		c6.441,6.441,6.441,16.884,0,23.325l-25.763,25.762C390.964,124.773,380.521,124.775,374.08,118.333z"/>
</g>
<g>
</g>
<g>
</g>
<g>
</g>
<g>
</g>
<g>
</g>
<g>
</g>
<g>
</g>
<g>
</g>
<g>
</g>
<g>
</g>
<g>
</g>
<g>
</g>
<g>
</g>
<g>
</g>
<g>
</g>
</svg>
