<?xml version="1.0" encoding="iso-8859-1"?>
<!-- Generator: Adobe Illustrator 19.0.0, SVG Export Plug-In . SVG Version: 6.00 Build 0)  -->
<svg version="1.1" id="Layer_1" xmlns="http://www.w3.org/2000/svg" xmlns:xlink="http://www.w3.org/1999/xlink" x="0px" y="0px"
	 viewBox="0 0 512 512" style="enable-background:new 0 0 512 512;" xml:space="preserve">
<path style="fill:#93C7EF;" d="M256,357.209c-42.676,0-77.395,34.72-77.395,77.395S213.324,512,256,512s77.395-34.72,77.395-77.395
	S298.676,357.209,256,357.209z"/>
<path style="fill:#78B9EB;" d="M256,512c42.676,0,77.395-34.72,77.395-77.395s-34.72-77.395-77.395-77.395"/>
<path style="fill:#FFAD41;" d="M378.461,50.471C345.652,17.893,302.215,0,256.012,0c-0.419,0-0.843,0.002-1.262,0.004
	c-45.274,0.32-88.091,18.097-120.565,50.058c-32.481,31.969-50.929,74.498-51.943,119.759
	c-1.066,47.514,16.713,92.286,50.059,126.07c18.076,18.312,28.443,42.832,28.443,67.272v17.86h190.512v-17.86
	c0-24.583,10.191-48.925,27.96-66.785c32.623-32.791,50.588-76.323,50.588-122.574C429.804,127.147,411.569,83.346,378.461,50.471z"
	/>
<path style="fill:#FF9811;" d="M378.461,50.471C345.652,17.893,302.215,0,256.012,0c-0.004,0-0.008,0-0.012,0v381.023h95.256v-17.86
	c0-24.583,10.191-48.925,27.96-66.785c32.623-32.791,50.588-76.323,50.588-122.574C429.804,127.147,411.569,83.346,378.461,50.471z"
	/>
<g>
	<polygon style="fill:#FFFFFF;" points="314.47,135.018 289.213,160.275 314.091,185.153 289.213,210.032 314.47,235.289 
		364.607,185.153 	"/>
	<polygon style="fill:#FFFFFF;" points="197.909,185.153 222.787,160.275 197.53,135.018 147.393,185.153 197.53,235.289 
		222.787,210.032 	"/>
	<polygon style="fill:#FFFFFF;" points="289.167,114.307 252.664,114.307 222.833,256 259.336,256 	"/>
</g>
<rect x="160.744" y="363.163" style="fill:#BEDDF5;" width="190.512" height="71.442"/>
<rect x="256" y="363.163" style="fill:#93C7EF;" width="95.256" height="71.442"/>
<g>
</g>
<g>
</g>
<g>
</g>
<g>
</g>
<g>
</g>
<g>
</g>
<g>
</g>
<g>
</g>
<g>
</g>
<g>
</g>
<g>
</g>
<g>
</g>
<g>
</g>
<g>
</g>
<g>
</g>
</svg>
