<?xml version="1.0" encoding="iso-8859-1"?>
<!-- Generator: Adobe Illustrator 19.0.0, SVG Export Plug-In . SVG Version: 6.00 Build 0)  -->
<svg version="1.1" id="Layer_1" xmlns="http://www.w3.org/2000/svg" xmlns:xlink="http://www.w3.org/1999/xlink" x="0px" y="0px"
	 viewBox="0 0 504.123 504.123" style="enable-background:new 0 0 504.123 504.123;" xml:space="preserve">
<circle style="fill:#FD8469;" cx="252.062" cy="252.062" r="252.062"/>
<path style="fill:#FFFFFF;" d="M349.342,232.763c0-54.351-44.505-98.462-98.855-97.28c-50.412,0.788-92.948,40.96-95.705,91.372
	c-1.575,27.175,7.877,51.988,24.418,70.498c24.418,27.569,37.809,52.775,37.809,89.797v4.332h70.105v-4.332
	c0-37.415,14.572-62.622,38.991-90.978C340.677,279.237,349.342,257.182,349.342,232.763z"/>
<ellipse style="fill:#2B3B4E;" cx="252.062" cy="435.594" rx="35.446" ry="8.271"/>
<rect x="246.942" y="297.354" style="fill:#54C0EB;" width="10.24" height="94.523"/>
<circle style="fill:#FCDA80;" cx="252.062" cy="232.763" r="66.954"/>
<g>
	<path style="fill:#F9B54C;" d="M252.062,172.505c-33.477,0-60.258,27.175-60.258,60.258s26.782,60.652,60.258,60.652
		s60.258-27.175,60.258-60.258S285.538,172.505,252.062,172.505z M252.062,286.326c-29.538,0-53.563-24.025-53.563-53.563
		s24.025-53.563,53.563-53.563s53.563,24.025,53.563,53.563S281.6,286.326,252.062,286.326z"/>
	<path style="fill:#F9B54C;" d="M248.911,254.818v-19.692c-6.302-1.575-10.634-4.332-13.391-7.877
		c-2.757-3.545-4.332-7.877-4.332-12.997s1.575-9.452,4.726-12.997c3.151-3.545,7.483-5.514,12.997-5.908v-4.726h6.695v4.726
		c5.12,0.788,9.058,2.363,11.815,5.12c2.757,2.757,4.726,6.695,5.514,11.422l-11.815,1.575c-0.788-3.545-2.757-6.302-5.514-7.483
		v18.511c7.483,1.969,12.603,4.726,15.36,7.877s3.938,7.483,3.938,12.603c0,5.514-1.575,10.24-5.12,14.178
		c-3.545,3.938-8.271,6.302-14.178,7.089v8.665h-6.695v-8.665c-5.514-0.788-9.846-2.757-12.997-5.908
		c-3.545-3.545-5.514-8.271-6.302-14.178l12.209-1.182c0.394,2.363,1.575,4.726,2.757,6.302
		C245.366,252.849,246.942,254.031,248.911,254.818z M248.911,205.982c-1.969,0.788-3.151,1.575-4.332,3.151
		s-1.575,3.151-1.575,5.12c0,1.575,0.394,3.151,1.575,4.726c1.182,1.575,2.363,2.757,4.726,3.545v-16.542H248.911z M255.606,255.606
		c2.363-0.394,4.332-1.575,5.908-3.151s2.363-3.938,2.363-6.302c0-1.969-0.788-3.938-1.969-5.514
		c-1.182-1.575-3.151-2.757-5.908-3.545v18.511H255.606z"/>
</g>
<g>
	<rect x="74.831" y="228.431" style="fill:#FFFFFF;" width="53.957" height="18.117"/>
	<rect x="375.335" y="228.431" style="fill:#FFFFFF;" width="53.957" height="18.117"/>
	<rect x="243.003" y="60.258" style="fill:#FFFFFF;" width="18.117" height="53.957"/>
	
		<rect x="118.984" y="122.127" transform="matrix(-0.7071 -0.7071 0.7071 -0.7071 156.4107 327.1573)" style="fill:#FFFFFF;" width="53.956" height="18.117"/>
	
		<rect x="331.31" y="334.391" transform="matrix(-0.7071 -0.7071 0.7071 -0.7071 368.7806 839.6536)" style="fill:#FFFFFF;" width="53.956" height="18.117"/>
	
		<rect x="349.201" y="103.896" transform="matrix(-0.7071 -0.7071 0.7071 -0.7071 519.0454 476.7431)" style="fill:#FFFFFF;" width="18.117" height="53.956"/>
	
		<rect x="136.658" y="316.5" transform="matrix(-0.7071 -0.7071 0.7071 -0.7071 5.8768 689.3915)" style="fill:#FFFFFF;" width="18.117" height="53.956"/>
</g>
<path style="fill:#324A5E;" d="M285.145,435.594h-65.772c-5.514,0-9.846-4.332-9.846-9.846v-56.714h85.858v56.714
	C295.385,431.262,290.658,435.594,285.145,435.594z"/>
<g>
</g>
<g>
</g>
<g>
</g>
<g>
</g>
<g>
</g>
<g>
</g>
<g>
</g>
<g>
</g>
<g>
</g>
<g>
</g>
<g>
</g>
<g>
</g>
<g>
</g>
<g>
</g>
<g>
</g>
</svg>
